<?xml version="1.0" encoding="utf-8"?>
<svg width="89.942627" height="90" id="svg3431" version="1.1" xmlns="http://www.w3.org/2000/svg">
  <g id="layer1" transform="matrix(1, 0, 0, 1, -355.012726, -462.362183)">
    <path style="fill:#31b7da" d="M 444.955 530.834 C 444.955 533.595 443.201 536.715 439.955 537.951 C 436.709 539.187 408.456 550.341 404.623 551.479 C 400.79 552.617 399.28 552.696 396.122 551.479 C 392.964 550.262 362.657 539.316 360.013 537.95 C 357.369 536.584 355.013 533.595 355.013 530.833 L 355.013 467.362 C 355.013 464.601 357.252 462.362 360.013 462.362 L 439.955 462.362 C 442.716 462.362 444.955 464.601 444.955 467.362 L 444.955 530.834 Z" id="path6094"/>
    <g transform="matrix(4.137134, 0, 0, 4.137134, 312.161987, 428.919189)" style="">
      <polygon class="st0" points="22.026 16.561 19.697 16.561 19.697 18.799 21.681 20.777 21.681 18.441 23.927 18.441" style="fill: rgb(242, 242, 242);"/>
      <polygon class="st1" points="24.878 19.381 22.621 19.381 22.621 21.714 26.461 25.542 28.886 25.542 28.886 23.343" style="fill: rgb(242, 242, 242);"/>
      <path class="st1" d="M 20.891 9.958 C 16.326 9.958 12.902 13.15 12.902 17.462 C 12.902 21.795 16.326 25.05 20.891 25.05 C 22.07 25.05 23.171 24.833 24.158 24.439 L 22 22.29 C 21.66 22.368 21.306 22.411 20.941 22.411 C 18.33 22.411 16.109 20.264 16.109 17.48 C 16.109 14.696 18.305 12.596 20.941 12.596 C 23.576 12.596 25.675 14.696 25.675 17.48 C 25.675 17.933 25.619 18.368 25.514 18.781 L 27.931 21.197 C 28.553 20.106 28.902 18.837 28.902 17.462 C 28.902 13.171 25.478 9.958 20.891 9.958 Z" style="fill: rgb(242, 242, 242);"/>
      <polygon class="st3" points="24.878 19.381 23.927 18.441 22.026 16.561 19.697 16.561 28.886 25.542 28.886 23.343" style="fill-opacity: 0.1725; fill: rgb(242, 242, 242);"/>
    </g>
  </g>
</svg>