<?xml version="1.0" encoding="UTF-8" standalone="no"?>
<!-- Created with Inkscape (http://www.inkscape.org/) -->

<svg
   xmlns:dc="http://purl.org/dc/elements/1.1/"
   xmlns:cc="http://creativecommons.org/ns#"
   xmlns:rdf="http://www.w3.org/1999/02/22-rdf-syntax-ns#"
   xmlns:svg="http://www.w3.org/2000/svg"
   xmlns="http://www.w3.org/2000/svg"
   xmlns:sodipodi="http://sodipodi.sourceforge.net/DTD/sodipodi-0.dtd"
   xmlns:inkscape="http://www.inkscape.org/namespaces/inkscape"
   width="89.942627"
   height="90"
   id="svg3431"
   version="1.1"
   inkscape:version="0.48.5 r10040"
   sodipodi:docname="Новый документ 4">
  <defs
     id="defs3433" />
  <sodipodi:namedview
     id="base"
     pagecolor="#ffffff"
     bordercolor="#666666"
     borderopacity="1.0"
     inkscape:pageopacity="0.0"
     inkscape:pageshadow="2"
     inkscape:zoom="2.8"
     inkscape:cx="19.987256"
     inkscape:cy="19.999991"
     inkscape:document-units="px"
     inkscape:current-layer="layer1"
     showgrid="false"
     fit-margin-top="0"
     fit-margin-left="0"
     fit-margin-right="0"
     fit-margin-bottom="0"
     inkscape:window-width="1366"
     inkscape:window-height="705"
     inkscape:window-x="-4"
     inkscape:window-y="-4"
     inkscape:window-maximized="1" />
  <metadata
     id="metadata3436">
    <rdf:RDF>
      <cc:Work
         rdf:about="">
        <dc:format>image/svg+xml</dc:format>
        <dc:type
           rdf:resource="http://purl.org/dc/dcmitype/StillImage" />
        <dc:title></dc:title>
      </cc:Work>
    </rdf:RDF>
  </metadata>
  <g
     inkscape:label="Layer 1"
     inkscape:groupmode="layer"
     id="layer1"
     transform="translate(-355.01274,-462.36217)">
    <g
       id="g3458">
      <path
         style="fill:#31b7da"
         inkscape:connector-curvature="0"
         d="m 444.95537,530.83389 c 0,2.76099 -1.75399,5.88098 -4.99998,7.11697 -3.24598,1.23599 -31.49987,12.38995 -35.33285,13.52794 -3.83299,1.138 -5.34298,1.217 -8.50097,0 -3.15798,-1.21699 -33.46486,-12.16295 -36.10885,-13.52894 -2.64399,-1.36599 -4.99998,-4.35498 -4.99998,-7.11697 v -63.47074 c 0,-2.76099 2.239,-4.99998 4.99998,-4.99998 h 79.94267 c 2.76099,0 4.99998,2.23899 4.99998,4.99998 v 63.47174 z"
         id="path6094" />
      <g
         transform="matrix(0.99999585,0,0,0.99999585,679.00923,-249.99707)"
         id="g6160">
        <path
           style="fill:#ffffff;fill-opacity:1;fill-rule:evenodd;stroke:none"
           id="path4677-8"
           d="m -312.29383,775.42974 11.90376,-4.01516 41.61592,-42.82047 -4.10963,-4.08601 17.12347,-5.90464 -5.47952,17.31241 -4.12144,-4.0742 -41.1898,42.3398 -4.22531,12.69265 -1.50308,-10.25432 -10.01437,-1.19006 z"
           inkscape:connector-curvature="0" />
        <path
           style="fill:#ffffff;fill-opacity:1;fill-rule:evenodd;stroke:#4e4e4e;stroke-width:0;stroke-linecap:butt;stroke-linejoin:miter;stroke-miterlimit:4;stroke-opacity:1;stroke-dasharray:none"
           id="path3221-4"
           d="m -281.89721,722.8767 c -13.11937,0 -22.7119,10.41021 -22.7119,26.18694 0,20.68939 14.022,26.8533 23.38119,26.8533 1.58508,0 3.2406,-0.19782 4.9042,-0.60791 0.22189,5.0149 0.88648,13.06798 10.01592,12.56154 10.00604,-0.55751 8.06651,-11.81042 8.06651,-11.81042 l -3.85497,0 c 0,0 0.0511,6.29846 -2.19199,5.99727 -2.23107,-0.17287 -3.55155,-6.12999 -4.75222,-10.03345 5.94384,-4.09486 10.6589,-11.57424 10.6589,-23.162 0,-15.80996 -9.55372,-25.98527 -23.51564,-25.98527 z m 0.56992,3.48964 c 5.9789,0 13.39408,4.49341 13.32728,21.99586 -0.0347,9.06465 -0.92416,14.8644 -2.77359,18.48283 -1.66628,-5.38156 -3.58099,-11.31805 -11.91272,-11.33111 -8.65008,-0.0136 -9.7123,7.35878 -9.73242,9.42555 -0.009,0.89821 0.12037,1.68697 0.35364,2.38196 -2.00667,-3.40948 -2.95188,-8.91238 -2.95188,-17.52421 0,-19.77381 7.24316,-23.43088 13.68969,-23.43088 z m -1.59577,32.9441 c 6.1901,-0.0155 6.20709,8.1564 6.4006,12.42711 -1.40407,0.4094 -2.99151,0.57284 -4.77268,0.57284 -0.66138,0 -1.29514,-0.0221 -1.90557,-0.0672 -1.96693,-0.33432 -4.74849,-1.65594 -4.88375,-6.45321 -0.0418,-1.47576 0.86109,-6.46876 5.1614,-6.47952 z"
           inkscape:connector-curvature="0" />
      </g>
    </g>
  </g>
</svg>
