<?xml version="1.0" encoding="utf-8"?>
<!-- Generator: Adobe Illustrator 24.2.0, SVG Export Plug-In . SVG Version: 6.00 Build 0)  -->
<svg version="1.1" id="Layer_1" xmlns="http://www.w3.org/2000/svg" xmlns:xlink="http://www.w3.org/1999/xlink" x="0px" y="0px"
	 viewBox="0 0 16 16" style="enable-background:new 0 0 16 16;" xml:space="preserve">
<style type="text/css">
	.st0{fill:#31B7DA;}
	.st1{fill:#FFFFFF;}
</style>
<path id="path3_35_" class="st0" d="M16,12.17c0,0.49-0.31,1.05-0.89,1.27c-0.58,0.22-5.6,2.2-6.29,2.41c-0.68,0.2-0.95,0.22-1.51,0
	s-5.95-2.16-6.42-2.41C0.42,13.2,0,12.66,0,12.17V0.89C0,0.4,0.4,0,0.89,0h14.22C15.6,0,16,0.4,16,0.89L16,12.17z"/>
<polygon id="polygon33_1_" class="st1" points="10.48,8.46 9.89,7.87 8.49,7.87 8.49,9.33 9.07,9.92 9.07,8.46 "/>
<path id="path40_1_" class="st1" d="M8.69,10.28c-0.21,0.05-0.43,0.08-0.66,0.08C6.39,10.36,5,9.01,5,7.27s1.37-3.05,3.02-3.05
	s2.96,1.31,2.96,3.05c0,0.28-0.04,0.56-0.1,0.81l1.51,1.51C12.78,8.92,13,8.12,13,7.26c0-2.68-2.14-4.69-5.01-4.69
	C5.14,2.57,3,4.57,3,7.26C3,9.97,5.14,12,7.99,12c0.74,0,1.43-0.14,2.04-0.38L8.69,10.28z"/>
<polygon class="st1" points="10.99,8.96 9.57,8.96 9.57,10.42 11.47,12.31 12.99,12.31 12.99,10.94 "/>
<polygon class="st1" points="7.99,7.37 9.38,7.37 8.7,6.7 7.25,6.7 7.25,8.1 7.99,8.84 "/>
</svg>
