<?xml version="1.0" encoding="UTF-8" standalone="no"?>
<!-- Created with Inkscape (http://www.inkscape.org/) -->

<svg
   xmlns:dc="http://purl.org/dc/elements/1.1/"
   xmlns:cc="http://creativecommons.org/ns#"
   xmlns:rdf="http://www.w3.org/1999/02/22-rdf-syntax-ns#"
   xmlns:svg="http://www.w3.org/2000/svg"
   xmlns="http://www.w3.org/2000/svg"
   version="1.1"
   width="743.75"
   height="1052.5"
   id="svg2"
   xml:space="preserve"><metadata
     id="metadata8"><rdf:RDF><cc:Work
         rdf:about=""><dc:format>image/svg+xml</dc:format><dc:type
           rdf:resource="http://purl.org/dc/dcmitype/StillImage" /><dc:title></dc:title></cc:Work></rdf:RDF></metadata><defs
     id="defs6"><clipPath
       id="clipPath16"><path
         d="M 0,842 595,842 595,0 0,0 0,842 z"
         id="path18" /></clipPath><clipPath
       id="clipPath90"><path
         d="M 0,842 595,842 595,0 0,0 0,842 z"
         id="path92" /></clipPath></defs><g
     transform="matrix(1.25,0,0,-1.25,0,1052.5)"
     id="g10"><g
       id="g12"><g
         clip-path="url(#clipPath16)"
         id="g14"><path
           d="m 0.5,841.39 595.276,0 0,-841.89 -595.276,0 0,841.89 z"
           id="path20"
           style="fill:none;stroke:#231f20;stroke-width:0.21600001;stroke-linecap:butt;stroke-linejoin:miter;stroke-miterlimit:22.9260006;stroke-opacity:1;stroke-dasharray:2.16, 1.08;stroke-dashoffset:0" /></g></g><path
       d="m 57.193,13.673 524.41,0 0,813.543 -524.41,0 0,-813.543 z"
       id="path22"
       style="fill:none;stroke:#231f20;stroke-width:0.5;stroke-linecap:butt;stroke-linejoin:miter;stroke-miterlimit:22.9260006;stroke-opacity:1;stroke-dasharray:none" /><path
       d="m 581.398,13.673 -523.963,0 0,113.387 523.963,0 0,-113.387 z"
       id="path24"
       style="fill:none;stroke:#231f20;stroke-width:0.56699997;stroke-linecap:butt;stroke-linejoin:miter;stroke-miterlimit:22.9260006;stroke-opacity:1;stroke-dasharray:none" /><g
       transform="translate(439.7285,84.127)"
       id="g26"><path
         d="M 0,0 0,-70.866"
         id="path28"
         style="fill:none;stroke:#231f20;stroke-width:0.56699997;stroke-linecap:butt;stroke-linejoin:miter;stroke-miterlimit:22.9260006;stroke-opacity:1;stroke-dasharray:none" /></g><g
       transform="translate(581.4004,69.9541)"
       id="g30"><path
         d="M 0,0 -141.637,0"
         id="path32"
         style="fill:none;stroke:#231f20;stroke-width:0.56699997;stroke-linecap:butt;stroke-linejoin:miter;stroke-miterlimit:22.9260006;stroke-opacity:1;stroke-dasharray:none" /></g><g
       transform="translate(581.4277,55.7813)"
       id="g34"><path
         d="M 0,0 -141.404,0"
         id="path36"
         style="fill:none;stroke:#231f20;stroke-width:0.56699997;stroke-linecap:butt;stroke-linejoin:miter;stroke-miterlimit:22.9260006;stroke-opacity:1;stroke-dasharray:none" /></g><g
       transform="translate(482.2412,84.127)"
       id="g38"><path
         d="M 0,0 0,-28.346"
         id="path40"
         style="fill:none;stroke:#231f20;stroke-width:0.56699997;stroke-linecap:butt;stroke-linejoin:miter;stroke-miterlimit:22.9260006;stroke-opacity:1;stroke-dasharray:none" /></g><g
       transform="translate(453.9238,69.9541)"
       id="g42"><path
         d="M 0,0 0,-14.173"
         id="path44"
         style="fill:none;stroke:#231f20;stroke-width:0.56699997;stroke-linecap:butt;stroke-linejoin:miter;stroke-miterlimit:22.9260006;stroke-opacity:1;stroke-dasharray:none" /></g><g
       transform="translate(468.084,69.9541)"
       id="g46"><path
         d="M 0,0 0,-14.173"
         id="path48"
         style="fill:none;stroke:#231f20;stroke-width:0.56699997;stroke-linecap:butt;stroke-linejoin:miter;stroke-miterlimit:22.9260006;stroke-opacity:1;stroke-dasharray:none" /></g><g
       transform="translate(530.209,55.7813)"
       id="g50"><path
         d="M 0,0 0,28.346"
         id="path52"
         style="fill:none;stroke:#231f20;stroke-width:0.56699997;stroke-linecap:butt;stroke-linejoin:miter;stroke-miterlimit:22.9260006;stroke-opacity:1;stroke-dasharray:none" /></g><g
       transform="translate(241.5225,55.7734)"
       id="g54"><path
         d="M 0,0 -184.12,0"
         id="path56"
         style="fill:none;stroke:#231f20;stroke-width:0.56699997;stroke-linecap:butt;stroke-linejoin:miter;stroke-miterlimit:22.9260006;stroke-opacity:1;stroke-dasharray:none" /></g><g
       transform="translate(581.6025,84.54)"
       id="g58"><path
         d="M 0,0 -523.962,0"
         id="path60"
         style="fill:none;stroke:#231f20;stroke-width:0.56699997;stroke-linecap:butt;stroke-linejoin:miter;stroke-miterlimit:22.9260006;stroke-opacity:1;stroke-dasharray:none" /></g><g
       transform="translate(241.48,13.2607)"
       id="g62"><path
         d="M 0,0 0,113.742"
         id="path64"
         style="fill:none;stroke:#231f20;stroke-width:0.56699997;stroke-linecap:butt;stroke-linejoin:miter;stroke-miterlimit:22.9260006;stroke-opacity:1;stroke-dasharray:none" /></g><g
       transform="translate(57.4028,112.5098)"
       id="g66"><path
         d="M 0,0 184.077,0"
         id="path68"
         style="fill:none;stroke:#231f20;stroke-width:0.56699997;stroke-linecap:butt;stroke-linejoin:miter;stroke-miterlimit:22.9260006;stroke-opacity:1;stroke-dasharray:none" /></g><g
       transform="translate(57.4453,98.3008)"
       id="g70"><path
         d="M 0,0 184.077,0"
         id="path72"
         style="fill:none;stroke:#231f20;stroke-width:0.56699997;stroke-linecap:butt;stroke-linejoin:miter;stroke-miterlimit:22.9260006;stroke-opacity:1;stroke-dasharray:none" /></g><g
       transform="translate(57.4028,69.957)"
       id="g74"><path
         d="M 0,0 184.077,0"
         id="path76"
         style="fill:none;stroke:#231f20;stroke-width:0.56699997;stroke-linecap:butt;stroke-linejoin:miter;stroke-miterlimit:22.9260006;stroke-opacity:1;stroke-dasharray:none" /></g><g
       transform="translate(57.1929,41.6074)"
       id="g78"><path
         d="M 0,0 184.078,0"
         id="path80"
         style="fill:none;stroke:#231f20;stroke-width:0.56699997;stroke-linecap:butt;stroke-linejoin:miter;stroke-miterlimit:22.9260006;stroke-opacity:1;stroke-dasharray:none" /></g><g
       transform="translate(57.4028,27.4775)"
       id="g82"><path
         d="M 0,0 184.077,0"
         id="path84"
         style="fill:none;stroke:#231f20;stroke-width:0.56699997;stroke-linecap:butt;stroke-linejoin:miter;stroke-miterlimit:22.9260006;stroke-opacity:1;stroke-dasharray:none" /></g><g
       id="g86"><g
         clip-path="url(#clipPath90)"
         id="g88"><g
           transform="translate(465.2227,73.543)"
           id="g94"><path
             d="M 0,0 C 0.084,0 0.164,-0.038 0.238,-0.113 0.313,-0.188 0.352,-0.268 0.352,-0.353 0.352,-0.439 0.32,-0.52 0.26,-0.594 0.2,-0.669 0.11,-0.708 0,-0.708 c -0.109,0 -0.198,0.034 -0.264,0.1 -0.06,0.074 -0.091,0.159 -0.091,0.255 0,0.051 0.029,0.124 0.089,0.215 C -0.208,-0.046 -0.118,0 0,0 m -5.308,5.666 -2.123,0 0,-6.019 c 0,-0.113 -0.033,-0.203 -0.098,-0.27 -0.066,-0.056 -0.153,-0.085 -0.253,-0.085 -0.044,0 -0.126,0.029 -0.25,0.085 -0.07,0.058 -0.106,0.147 -0.106,0.27 l 0,6.374 c 0,0.234 0.118,0.353 0.356,0.353 l 4.596,0 c 0.392,0 0.725,-0.136 1.002,-0.406 0.276,-0.274 0.413,-0.61 0.413,-1.011 l 0,-5.31 c 0,-0.113 -0.034,-0.203 -0.098,-0.27 -0.066,-0.056 -0.152,-0.085 -0.254,-0.085 -0.044,0 -0.126,0.029 -0.248,0.085 -0.07,0.058 -0.107,0.147 -0.107,0.27 l 0,5.31 c 0,0.198 -0.067,0.365 -0.205,0.503 -0.138,0.138 -0.304,0.206 -0.503,0.206 l -1.415,0 0,-6.019 c 0,-0.113 -0.033,-0.203 -0.098,-0.27 -0.066,-0.056 -0.153,-0.085 -0.254,-0.085 -0.043,0 -0.125,0.029 -0.248,0.085 -0.07,0.058 -0.107,0.147 -0.107,0.27 l 0,6.019 z m -4.245,-6.019 c 0,-0.237 -0.118,-0.355 -0.352,-0.355 l -2.478,0 c -0.395,0 -0.731,0.138 -1.004,0.411 -0.273,0.274 -0.411,0.61 -0.411,1.005 l 0,5.313 c 0,0.075 0.036,0.152 0.107,0.232 0.07,0.08 0.152,0.121 0.249,0.121 0.084,0 0.164,-0.032 0.239,-0.092 0.074,-0.06 0.113,-0.15 0.113,-0.261 l 0,-5.313 c 0,-0.198 0.068,-0.364 0.205,-0.502 C -12.747,0.068 -12.581,0 -12.383,0 l 2.123,0 0,6.021 c 0,0.075 0.036,0.152 0.106,0.232 0.07,0.08 0.152,0.121 0.249,0.121 0.085,0 0.164,-0.032 0.239,-0.092 0.075,-0.06 0.113,-0.15 0.113,-0.261 l 0,-6.374 z m -5.66,-0.006 c 0,-0.115 -0.033,-0.204 -0.099,-0.272 -0.065,-0.056 -0.152,-0.084 -0.253,-0.084 -0.043,0 -0.126,0.028 -0.249,0.084 -0.07,0.059 -0.106,0.148 -0.106,0.272 l 0,8.857 -1.5,0 -2.76,-8.959 c -0.055,-0.17 -0.166,-0.254 -0.333,-0.254 -0.098,0 -0.183,0.031 -0.258,0.097 -0.073,0.062 -0.109,0.147 -0.109,0.251 l 0.022,0.118 2.837,9.206 c 0.051,0.167 0.165,0.249 0.338,0.249 l 2.118,0 c 0.234,0 0.352,-0.118 0.352,-0.355 l 0,-9.21 z"
             id="path96"
             style="fill:#231f20;fill-opacity:1;fill-rule:evenodd;stroke:none" /></g><g
           transform="translate(506.7822,79.1689)"
           id="g98"><path
             d="m 0,0 -2.123,0 0,-6.018 c 0,-0.113 -0.033,-0.203 -0.099,-0.27 -0.065,-0.056 -0.152,-0.085 -0.253,-0.085 -0.044,0 -0.126,0.029 -0.249,0.085 -0.07,0.058 -0.106,0.147 -0.106,0.27 l 0,6.373 c 0,0.235 0.118,0.354 0.355,0.354 l 4.597,0 c 0.392,0 0.725,-0.136 1.002,-0.406 0.275,-0.274 0.413,-0.61 0.413,-1.011 l 0,-5.31 c 0,-0.113 -0.034,-0.203 -0.099,-0.27 -0.065,-0.056 -0.152,-0.085 -0.253,-0.085 -0.044,0 -0.126,0.029 -0.248,0.085 -0.071,0.058 -0.107,0.147 -0.107,0.27 l 0,5.31 c 0,0.198 -0.067,0.365 -0.205,0.503 C 2.487,-0.067 2.32,0 2.122,0 l -1.415,0 0,-6.018 c 0,-0.113 -0.033,-0.203 -0.099,-0.27 -0.065,-0.056 -0.152,-0.085 -0.254,-0.085 -0.042,0 -0.125,0.029 -0.248,0.085 C 0.036,-6.23 0,-6.141 0,-6.018 L 0,0 z m -4.6,-6.373 -2.475,0 c -0.396,0 -0.732,0.138 -1.004,0.411 -0.274,0.274 -0.411,0.608 -0.411,1.005 l 0,4.249 c 0,0.355 0.136,0.68 0.403,0.974 0.268,0.296 0.607,0.443 1.012,0.443 l 2.475,0 c 0.084,0 0.166,-0.039 0.242,-0.114 0.075,-0.074 0.113,-0.155 0.113,-0.24 0,-0.086 -0.031,-0.167 -0.092,-0.241 C -4.399,0.039 -4.486,0 -4.6,0 L -7.075,0 C -7.273,0 -7.439,-0.067 -7.577,-0.205 -7.715,-0.343 -7.782,-0.51 -7.782,-0.708 l 0,-4.249 c 0,-0.198 0.067,-0.364 0.205,-0.502 0.138,-0.138 0.304,-0.206 0.502,-0.206 l 2.475,0 c 0.084,0 0.166,-0.038 0.242,-0.113 0.075,-0.076 0.113,-0.155 0.113,-0.24 0,-0.086 -0.031,-0.167 -0.092,-0.241 -0.062,-0.075 -0.149,-0.114 -0.263,-0.114 m -5.305,0.355 c 0,-0.237 -0.118,-0.355 -0.353,-0.355 l -2.476,0 c -0.397,0 -0.733,0.138 -1.005,0.411 -0.274,0.274 -0.41,0.608 -0.41,1.005 l 0,5.312 c 0,0.076 0.036,0.153 0.106,0.233 0.069,0.079 0.151,0.121 0.248,0.121 0.085,0 0.164,-0.032 0.239,-0.092 0.076,-0.06 0.114,-0.15 0.114,-0.262 l 0,-5.312 c 0,-0.198 0.067,-0.364 0.205,-0.502 0.137,-0.138 0.304,-0.206 0.503,-0.206 l 2.122,0 0,6.02 c 0,0.076 0.036,0.153 0.106,0.233 0.069,0.079 0.152,0.121 0.248,0.121 0.085,0 0.165,-0.032 0.239,-0.092 0.076,-0.06 0.114,-0.15 0.114,-0.262 l 0,-6.373 z m -5.659,-0.006 c 0,-0.115 -0.035,-0.204 -0.1,-0.272 -0.065,-0.056 -0.152,-0.084 -0.253,-0.084 -0.044,0 -0.126,0.028 -0.249,0.084 -0.07,0.059 -0.106,0.148 -0.106,0.272 l 0,8.857 -1.499,0 -2.76,-8.959 c -0.056,-0.17 -0.167,-0.254 -0.333,-0.254 -0.1,0 -0.185,0.031 -0.259,0.097 -0.073,0.062 -0.108,0.147 -0.108,0.251 l 0.021,0.118 2.837,9.206 c 0.051,0.167 0.164,0.249 0.338,0.249 l 2.118,0 c 0.234,0 0.353,-0.118 0.353,-0.355 l 0,-9.21 z"
             id="path100"
             style="fill:#231f20;fill-opacity:1;fill-rule:evenodd;stroke:none" /></g><g
           transform="translate(566.6357,79.8701)"
           id="g102"><path
             d="M 0,0 0.961,0 C 1.356,0 1.692,-0.136 1.97,-0.408 2.245,-0.679 2.383,-1.015 2.383,-1.416 l 0,-4.249 C 2.383,-6.052 2.248,-6.386 1.978,-6.663 1.704,-6.941 1.366,-7.081 0.961,-7.081 l -1.4,0 c -0.392,0 -0.727,0.14 -1.005,0.418 -0.278,0.277 -0.418,0.611 -0.418,0.998 l 0,4.249 0,2.84 c 0,0.439 0.145,0.787 0.437,1.049 0.273,0.234 0.599,0.352 0.973,0.352 0.382,0 0.705,-0.116 0.969,-0.347 C 0.809,2.224 0.953,1.87 0.953,1.424 l 0,-0.257 L 0.91,0.991 C 0.869,0.844 0.779,0.693 0.642,0.536 0.615,0.495 0.51,0.403 0.325,0.261 L 0,0 z m 1.676,-5.665 0,4.249 c 0,0.197 -0.069,0.364 -0.206,0.502 -0.137,0.139 -0.307,0.206 -0.509,0.206 l -1.4,0 c -0.199,0 -0.368,-0.07 -0.507,-0.208 -0.138,-0.14 -0.208,-0.307 -0.208,-0.5 l 0,-4.249 c 0,-0.198 0.067,-0.365 0.205,-0.503 0.137,-0.138 0.306,-0.205 0.51,-0.205 l 1.4,0 c 0.198,0 0.367,0.069 0.507,0.207 0.137,0.141 0.208,0.308 0.208,0.501 M -1.154,0 -0.608,0.374 C -0.464,0.479 -0.261,0.652 0,0.892 l 0.084,0.091 0.114,0.184 c 0.041,0.073 0.063,0.157 0.063,0.257 0,0.212 -0.071,0.382 -0.208,0.51 -0.14,0.128 -0.307,0.19 -0.499,0.19 -0.199,0 -0.366,-0.061 -0.503,-0.184 C -1.087,1.827 -1.154,1.655 -1.154,1.424 l 0,-1.424 z m -2.83,-5.665 0,4.249 c 0,0.197 -0.068,0.364 -0.205,0.502 -0.138,0.139 -0.305,0.206 -0.502,0.206 l -1.415,0 c -0.199,0 -0.366,-0.067 -0.503,-0.206 -0.137,-0.138 -0.205,-0.305 -0.205,-0.502 l 0,-4.249 c 0,-0.198 0.068,-0.365 0.205,-0.503 0.137,-0.138 0.304,-0.205 0.503,-0.205 l 1.415,0 c 0.197,0 0.364,0.067 0.502,0.205 0.137,0.138 0.205,0.305 0.205,0.503 m 0.708,0 c 0,-0.397 -0.138,-0.732 -0.412,-1.006 -0.272,-0.272 -0.608,-0.41 -1.003,-0.41 l -1.415,0 c -0.397,0 -0.733,0.138 -1.005,0.41 -0.273,0.274 -0.41,0.609 -0.41,1.006 l 0,4.249 c 0,0.355 0.135,0.679 0.403,0.974 C -6.851,-0.147 -6.513,0 -6.106,0 l 1.415,0 c 0.39,0 0.724,-0.136 1.002,-0.406 0.275,-0.273 0.413,-0.609 0.413,-1.01 l 0,-4.249 z m -9.199,4.957 -2.122,0 0,-6.019 c 0,-0.113 -0.034,-0.203 -0.098,-0.27 -0.066,-0.056 -0.153,-0.084 -0.254,-0.084 -0.043,0 -0.125,0.028 -0.249,0.084 -0.071,0.059 -0.106,0.147 -0.106,0.27 l 0,6.374 c 0,0.235 0.118,0.353 0.355,0.353 l 4.597,0 c 0.392,0 0.725,-0.136 1.002,-0.406 0.276,-0.273 0.413,-0.609 0.413,-1.01 l 0,-5.311 c 0,-0.113 -0.034,-0.203 -0.099,-0.27 -0.065,-0.056 -0.152,-0.084 -0.253,-0.084 -0.044,0 -0.126,0.028 -0.249,0.084 -0.07,0.059 -0.106,0.147 -0.106,0.27 l 0,5.311 c 0,0.197 -0.068,0.364 -0.206,0.502 -0.137,0.139 -0.303,0.206 -0.502,0.206 l -1.415,0 0,-6.019 c 0,-0.113 -0.034,-0.203 -0.099,-0.27 -0.065,-0.056 -0.152,-0.084 -0.253,-0.084 -0.044,0 -0.125,0.028 -0.249,0.084 -0.07,0.059 -0.107,0.147 -0.107,0.27 l 0,6.019 z m -4.599,-6.373 -2.475,0 c -0.396,0 -0.731,0.138 -1.004,0.41 -0.273,0.274 -0.411,0.609 -0.411,1.006 l 0,4.249 c 0,0.355 0.136,0.679 0.403,0.974 0.268,0.295 0.607,0.442 1.012,0.442 l 2.475,0 c 0.085,0 0.167,-0.039 0.242,-0.113 0.074,-0.075 0.113,-0.156 0.113,-0.24 0,-0.086 -0.032,-0.167 -0.092,-0.242 -0.063,-0.075 -0.149,-0.113 -0.263,-0.113 l -2.475,0 c -0.198,0 -0.364,-0.067 -0.502,-0.206 -0.137,-0.138 -0.206,-0.305 -0.206,-0.502 l 0,-4.249 c 0,-0.198 0.069,-0.365 0.206,-0.503 0.138,-0.138 0.304,-0.205 0.502,-0.205 l 2.475,0 c 0.085,0 0.167,-0.039 0.242,-0.114 0.074,-0.075 0.113,-0.155 0.113,-0.24 0,-0.086 -0.032,-0.166 -0.092,-0.241 -0.063,-0.075 -0.149,-0.113 -0.263,-0.113 m -5.305,0.354 c 0,-0.236 -0.118,-0.354 -0.352,-0.354 l -2.478,0 c -0.395,0 -0.731,0.138 -1.004,0.41 -0.273,0.274 -0.411,0.609 -0.411,1.006 l 0,5.312 c 0,0.075 0.036,0.152 0.106,0.232 0.071,0.08 0.153,0.121 0.249,0.121 0.084,0 0.165,-0.031 0.24,-0.092 0.074,-0.06 0.113,-0.15 0.113,-0.261 l 0,-5.312 c 0,-0.198 0.067,-0.365 0.205,-0.503 0.138,-0.138 0.305,-0.205 0.502,-0.205 l 2.123,0 0,6.02 c 0,0.075 0.036,0.152 0.107,0.232 0.069,0.08 0.151,0.121 0.248,0.121 0.085,0 0.164,-0.031 0.239,-0.092 0.075,-0.06 0.113,-0.15 0.113,-0.261 l 0,-6.374 z m -5.66,-0.006 c 0,-0.114 -0.033,-0.204 -0.099,-0.271 -0.065,-0.056 -0.152,-0.085 -0.254,-0.085 -0.043,0 -0.125,0.029 -0.248,0.085 -0.07,0.058 -0.106,0.148 -0.106,0.271 l 0,8.857 -1.5,0 -2.76,-8.959 c -0.056,-0.169 -0.166,-0.254 -0.333,-0.254 -0.099,0 -0.183,0.031 -0.259,0.097 -0.072,0.062 -0.108,0.147 -0.108,0.251 l 0.021,0.119 2.838,9.205 c 0.051,0.167 0.164,0.249 0.338,0.249 l 2.117,0 c 0.235,0 0.353,-0.118 0.353,-0.354 l 0,-9.211 z"
             id="path104"
             style="fill:#231f20;fill-opacity:1;fill-rule:evenodd;stroke:none" /></g><g
           transform="translate(80.7847,16.8037)"
           id="g106"><path
             d="M 0,0 C 0.084,0 0.164,-0.038 0.239,-0.113 0.313,-0.188 0.352,-0.268 0.352,-0.353 0.352,-0.439 0.321,-0.52 0.26,-0.595 0.2,-0.669 0.111,-0.708 0,-0.708 c -0.109,0 -0.199,0.034 -0.264,0.1 -0.06,0.074 -0.091,0.159 -0.091,0.255 0,0.051 0.029,0.124 0.089,0.215 C -0.208,-0.046 -0.119,0 0,0 m -4.153,6.373 0.961,0 c 0.396,0 0.732,-0.135 1.009,-0.408 0.275,-0.271 0.412,-0.607 0.412,-1.008 l 0,-4.249 c 0,-0.387 -0.134,-0.72 -0.405,-0.998 -0.273,-0.277 -0.611,-0.418 -1.016,-0.418 l -1.401,0 c -0.391,0 -0.727,0.141 -1.005,0.418 -0.277,0.278 -0.417,0.611 -0.417,0.998 l 0,4.249 0,2.84 c 0,0.439 0.145,0.788 0.437,1.049 0.273,0.234 0.599,0.353 0.973,0.353 0.381,0 0.705,-0.116 0.968,-0.348 C -3.344,8.597 -3.2,8.244 -3.2,7.797 l 0,-0.256 -0.043,-0.177 C -3.284,7.217 -3.374,7.067 -3.511,6.91 -3.538,6.869 -3.644,6.777 -3.828,6.635 L -4.153,6.373 z m 1.675,-5.665 0,4.249 c 0,0.198 -0.067,0.365 -0.205,0.503 -0.138,0.138 -0.307,0.205 -0.509,0.205 l -1.401,0 C -4.791,5.665 -4.96,5.595 -5.1,5.457 -5.237,5.317 -5.308,5.15 -5.308,4.957 l 0,-4.249 C -5.308,0.51 -5.24,0.344 -5.103,0.206 -4.965,0.068 -4.796,0 -4.593,0 l 1.401,0 c 0.197,0 0.366,0.07 0.506,0.208 0.138,0.141 0.208,0.307 0.208,0.5 m -2.83,5.665 0.546,0.375 c 0.145,0.104 0.348,0.278 0.609,0.518 l 0.084,0.091 0.114,0.184 c 0.04,0.072 0.062,0.157 0.062,0.256 0,0.213 -0.07,0.382 -0.208,0.51 C -4.24,8.435 -4.407,8.498 -4.6,8.498 -4.798,8.498 -4.965,8.438 -5.103,8.314 -5.24,8.2 -5.308,8.029 -5.308,7.797 l 0,-1.424 z m -5.66,-0.708 -2.122,0 0,-6.018 c 0,-0.113 -0.034,-0.203 -0.099,-0.27 -0.065,-0.056 -0.152,-0.085 -0.253,-0.085 -0.044,0 -0.126,0.029 -0.249,0.085 -0.07,0.058 -0.106,0.147 -0.106,0.27 l 0,6.374 c 0,0.234 0.118,0.352 0.355,0.352 l 4.597,0 c 0.391,0 0.724,-0.135 1.002,-0.405 0.275,-0.274 0.413,-0.61 0.413,-1.011 l 0,-5.31 c 0,-0.113 -0.034,-0.203 -0.099,-0.27 -0.065,-0.056 -0.152,-0.085 -0.254,-0.085 -0.043,0 -0.126,0.029 -0.248,0.085 -0.071,0.058 -0.107,0.147 -0.107,0.27 l 0,5.31 c 0,0.198 -0.067,0.365 -0.205,0.503 -0.137,0.138 -0.304,0.205 -0.502,0.205 l -1.415,0 0,-6.018 c 0,-0.113 -0.034,-0.203 -0.099,-0.27 -0.065,-0.056 -0.152,-0.085 -0.254,-0.085 -0.043,0 -0.125,0.029 -0.248,0.085 -0.07,0.058 -0.107,0.147 -0.107,0.27 l 0,6.018 z m -4.945,-2.117 -2.137,0 c -0.533,0 -1.036,0.206 -1.504,0.616 -0.198,0.208 -0.355,0.436 -0.468,0.68 l -0.107,0.377 -0.036,0.224 0,0.22 0,3.189 c 0,0.074 0.036,0.152 0.106,0.231 0.07,0.082 0.152,0.121 0.249,0.121 0.084,0 0.164,-0.029 0.239,-0.092 0.075,-0.06 0.113,-0.147 0.113,-0.26 l 0,-3.189 c 0,-0.392 0.138,-0.725 0.411,-0.998 0.273,-0.272 0.609,-0.411 1.005,-0.411 l 2.129,0 0,4.598 c 0,0.074 0.037,0.152 0.106,0.231 0.07,0.082 0.153,0.121 0.249,0.121 0.085,0 0.164,-0.029 0.239,-0.092 0.075,-0.06 0.113,-0.147 0.113,-0.26 l 0,-7.437 c 0,-0.581 -0.207,-1.081 -0.623,-1.499 -0.415,-0.418 -0.917,-0.626 -1.506,-0.626 l -1.77,0 c -0.106,0 -0.195,0.034 -0.261,0.1 -0.06,0.074 -0.092,0.159 -0.092,0.255 0,0.051 0.029,0.124 0.09,0.215 0.058,0.092 0.147,0.138 0.263,0.138 l 1.77,0 c 0.381,0 0.715,0.136 0.997,0.403 0.283,0.269 0.425,0.608 0.425,1.014 l 0,2.131 z"
             id="path108"
             style="fill:#231f20;fill-opacity:1;fill-rule:evenodd;stroke:none" /></g><g
           transform="translate(104.4868,30.2656)"
           id="g110"><path
             d="M 0,0 C 0.084,0 0.164,-0.039 0.239,-0.114 0.313,-0.188 0.352,-0.269 0.352,-0.354 0.352,-0.44 0.321,-0.52 0.26,-0.595 0.2,-0.67 0.111,-0.708 0,-0.708 c -0.109,0 -0.199,0.033 -0.264,0.099 -0.06,0.075 -0.091,0.159 -0.091,0.255 0,0.051 0.028,0.125 0.089,0.216 C -0.208,-0.046 -0.119,0 0,0 m -5.308,-0.716 0,-2.47 c 0,-0.085 -0.038,-0.167 -0.113,-0.242 -0.075,-0.074 -0.155,-0.113 -0.239,-0.113 -0.087,0 -0.167,0.031 -0.241,0.092 -0.076,0.062 -0.114,0.149 -0.114,0.263 l 0,9.207 c 0,0.234 0.119,0.352 0.355,0.352 l 2.482,0 c 0.382,0 0.713,-0.136 0.99,-0.406 0.278,-0.273 0.417,-0.607 0.417,-1.003 l 0,-4.256 c 0,-0.392 -0.134,-0.728 -0.405,-1.006 -0.273,-0.277 -0.606,-0.418 -1.002,-0.418 l -2.13,0 z m 0,0.708 2.13,0 c 0.183,0 0.348,0.071 0.488,0.213 0.142,0.143 0.212,0.31 0.212,0.503 l 0,4.256 c 0,0.193 -0.067,0.357 -0.205,0.495 -0.138,0.139 -0.302,0.206 -0.495,0.206 l -2.13,0 0,-5.673 z m -5.66,5.673 -2.122,0 0,-6.019 c 0,-0.113 -0.034,-0.203 -0.099,-0.27 -0.065,-0.056 -0.152,-0.084 -0.253,-0.084 -0.044,0 -0.126,0.028 -0.249,0.084 -0.07,0.058 -0.106,0.147 -0.106,0.27 l 0,6.375 c 0,0.234 0.118,0.352 0.355,0.352 l 4.597,0 c 0.391,0 0.724,-0.136 1.002,-0.406 0.275,-0.273 0.413,-0.609 0.413,-1.01 l 0,-5.311 c 0,-0.113 -0.034,-0.203 -0.099,-0.27 -0.065,-0.056 -0.152,-0.084 -0.254,-0.084 -0.043,0 -0.126,0.028 -0.248,0.084 -0.071,0.058 -0.107,0.147 -0.107,0.27 l 0,5.311 c 0,0.197 -0.068,0.364 -0.205,0.502 -0.137,0.139 -0.304,0.206 -0.502,0.206 l -1.415,0 0,-6.019 c 0,-0.113 -0.034,-0.203 -0.099,-0.27 -0.065,-0.056 -0.152,-0.084 -0.254,-0.084 -0.043,0 -0.125,0.028 -0.248,0.084 -0.07,0.058 -0.107,0.147 -0.107,0.27 l 0,6.019 z m -4.952,-2.477 0,2.833 c 0,0.074 0.036,0.152 0.106,0.231 0.07,0.08 0.152,0.121 0.249,0.121 0.085,0 0.164,-0.031 0.239,-0.092 0.075,-0.06 0.114,-0.15 0.114,-0.26 l 0,-6.375 c 0,-0.113 -0.034,-0.203 -0.099,-0.27 -0.065,-0.056 -0.153,-0.084 -0.254,-0.084 -0.043,0 -0.125,0.028 -0.249,0.084 -0.07,0.058 -0.106,0.147 -0.106,0.27 l 0,2.833 -2.83,0 0,-2.833 c 0,-0.113 -0.034,-0.203 -0.099,-0.27 -0.065,-0.056 -0.151,-0.084 -0.253,-0.084 -0.044,0 -0.126,0.028 -0.249,0.084 -0.07,0.058 -0.107,0.147 -0.107,0.27 l 0,6.375 c 0,0.074 0.037,0.152 0.107,0.231 0.07,0.08 0.152,0.121 0.249,0.121 0.084,0 0.164,-0.031 0.239,-0.092 0.074,-0.06 0.113,-0.15 0.113,-0.26 l 0,-2.833 2.83,0 z m -5.66,-2.48 0,4.249 c 0,0.197 -0.067,0.364 -0.205,0.502 -0.138,0.139 -0.304,0.206 -0.502,0.206 l -1.415,0 c -0.198,0 -0.365,-0.067 -0.502,-0.206 -0.138,-0.138 -0.206,-0.305 -0.206,-0.502 l 0,-4.249 c 0,-0.198 0.068,-0.365 0.206,-0.503 C -24.067,0.067 -23.9,0 -23.702,0 l 1.415,0 c 0.198,0 0.364,0.067 0.502,0.205 0.138,0.138 0.205,0.305 0.205,0.503 m 0.708,0 c 0,-0.396 -0.138,-0.732 -0.411,-1.006 -0.273,-0.272 -0.608,-0.41 -1.004,-0.41 l -1.415,0 c -0.396,0 -0.732,0.138 -1.005,0.41 -0.272,0.274 -0.41,0.61 -0.41,1.006 l 0,4.249 c 0,0.356 0.135,0.679 0.403,0.974 0.268,0.295 0.606,0.442 1.012,0.442 l 1.415,0 c 0.391,0 0.724,-0.136 1.002,-0.406 0.275,-0.273 0.413,-0.609 0.413,-1.01 l 0,-4.249 z m -9.553,2.363 0,-3.426 c 0,-0.114 -0.033,-0.204 -0.098,-0.269 -0.065,-0.058 -0.152,-0.084 -0.254,-0.084 -0.044,0 -0.125,0.026 -0.249,0.084 -0.07,0.056 -0.106,0.147 -0.106,0.269 l 0,9.215 c 0,0.075 0.036,0.152 0.106,0.232 0.07,0.082 0.152,0.121 0.249,0.121 0.085,0 0.164,-0.029 0.239,-0.092 0.075,-0.06 0.113,-0.15 0.113,-0.261 l 0,-4.604 3.615,4.809 c 0.07,0.099 0.162,0.148 0.275,0.148 0.085,0 0.17,-0.036 0.249,-0.109 0.08,-0.073 0.12,-0.157 0.12,-0.251 0,-0.076 -0.026,-0.148 -0.079,-0.213 l -2.518,-3.35 2.555,-5.496 0.021,-0.092 c 0,-0.033 0.005,-0.057 0.015,-0.072 0,-0.085 -0.039,-0.164 -0.114,-0.239 -0.075,-0.068 -0.162,-0.099 -0.256,-0.099 l -0.162,0.041 -0.142,0.164 -2.398,5.155 -1.181,-1.581 z M -37.145,0 c 0.085,0 0.165,-0.039 0.239,-0.114 0.075,-0.074 0.114,-0.155 0.114,-0.24 0,-0.086 -0.032,-0.166 -0.092,-0.241 -0.06,-0.075 -0.149,-0.113 -0.261,-0.113 -0.108,0 -0.198,0.033 -0.263,0.099 -0.06,0.075 -0.092,0.159 -0.092,0.255 0,0.051 0.029,0.125 0.09,0.216 0.058,0.092 0.147,0.138 0.265,0.138 m -2.47,4.949 0,3.904 c 0,0.075 0.036,0.152 0.107,0.232 0.069,0.082 0.152,0.12 0.248,0.12 0.085,0 0.164,-0.028 0.239,-0.092 0.075,-0.06 0.114,-0.147 0.114,-0.26 l 0,-9.208 c 0,-0.114 -0.034,-0.204 -0.099,-0.269 -0.066,-0.058 -0.153,-0.084 -0.254,-0.084 -0.043,0 -0.126,0.026 -0.248,0.084 -0.071,0.056 -0.107,0.145 -0.107,0.269 l 0,4.596 -3.545,0 0,-4.596 c 0,-0.114 -0.033,-0.204 -0.098,-0.269 -0.066,-0.058 -0.153,-0.084 -0.254,-0.084 -0.044,0 -0.126,0.026 -0.249,0.084 -0.07,0.056 -0.106,0.145 -0.106,0.269 l 0,9.208 c 0,0.075 0.036,0.152 0.106,0.232 0.07,0.082 0.152,0.12 0.249,0.12 0.084,0 0.164,-0.028 0.239,-0.092 0.075,-0.06 0.113,-0.147 0.113,-0.26 l 0,-3.904 3.545,0 z"
             id="path112"
             style="fill:#231f20;fill-opacity:1;fill-rule:evenodd;stroke:none" /></g><g
           transform="translate(77.085,126.9678)"
           id="g114"><path
             d="M 0,0 0,-42.841"
             id="path116"
             style="fill:none;stroke:#231f20;stroke-width:0.56699997;stroke-linecap:butt;stroke-linejoin:miter;stroke-miterlimit:22.9260006;stroke-opacity:1;stroke-dasharray:none" /></g><g
           transform="translate(105.4053,126.8809)"
           id="g118"><path
             d="M 0,0 0,-113.62"
             id="path120"
             style="fill:none;stroke:#231f20;stroke-width:0.56699997;stroke-linecap:butt;stroke-linejoin:miter;stroke-miterlimit:22.9260006;stroke-opacity:1;stroke-dasharray:none" /></g><g
           transform="translate(170.6816,127.0596)"
           id="g122"><path
             d="M 0,0 0,-113.799"
             id="path124"
             style="fill:none;stroke:#231f20;stroke-width:0.56699997;stroke-linecap:butt;stroke-linejoin:miter;stroke-miterlimit:22.9260006;stroke-opacity:1;stroke-dasharray:none" /></g><g
           transform="translate(213.1616,126.8633)"
           id="g126"><path
             d="M 0,0 0,-113.603"
             id="path128"
             style="fill:none;stroke:#231f20;stroke-width:0.56699997;stroke-linecap:butt;stroke-linejoin:miter;stroke-miterlimit:22.9260006;stroke-opacity:1;stroke-dasharray:none" /></g><g
           transform="translate(100.6445,93.8838)"
           id="g130"><path
             d="m 0,0 -2.123,0 0,-6.019 c 0,-0.113 -0.033,-0.203 -0.099,-0.27 -0.064,-0.056 -0.152,-0.084 -0.253,-0.084 -0.044,0 -0.126,0.028 -0.249,0.084 -0.07,0.059 -0.106,0.147 -0.106,0.27 l 0,6.374 c 0,0.235 0.119,0.353 0.355,0.353 l 4.598,0 c 0.391,0 0.724,-0.136 1.002,-0.406 0.275,-0.273 0.413,-0.609 0.413,-1.01 l 0,-5.311 c 0,-0.113 -0.034,-0.203 -0.1,-0.27 -0.064,-0.056 -0.152,-0.084 -0.253,-0.084 -0.043,0 -0.126,0.028 -0.249,0.084 -0.07,0.059 -0.106,0.147 -0.106,0.27 l 0,5.311 c 0,0.197 -0.067,0.364 -0.205,0.503 C 2.487,-0.067 2.32,0 2.123,0 l -1.415,0 0,-6.019 c 0,-0.113 -0.034,-0.203 -0.1,-0.27 -0.065,-0.056 -0.151,-0.084 -0.253,-0.084 -0.043,0 -0.126,0.028 -0.249,0.084 C 0.036,-6.23 0,-6.142 0,-6.019 L 0,0 z m -4.6,-6.373 -2.475,0 c -0.396,0 -0.731,0.138 -1.004,0.41 -0.273,0.274 -0.411,0.609 -0.411,1.006 l 0,4.249 c 0,0.355 0.136,0.679 0.404,0.974 0.268,0.295 0.606,0.442 1.011,0.442 l 2.475,0 c 0.085,0 0.167,-0.039 0.242,-0.113 0.075,-0.075 0.113,-0.156 0.113,-0.24 0,-0.086 -0.031,-0.167 -0.091,-0.242 C -4.399,0.038 -4.486,0 -4.6,0 l -2.475,0 c -0.198,0 -0.364,-0.067 -0.502,-0.205 -0.137,-0.139 -0.205,-0.306 -0.205,-0.503 l 0,-4.249 c 0,-0.198 0.068,-0.365 0.205,-0.503 0.138,-0.138 0.304,-0.205 0.502,-0.205 l 2.475,0 c 0.085,0 0.167,-0.039 0.242,-0.114 0.075,-0.075 0.113,-0.155 0.113,-0.24 0,-0.086 -0.031,-0.166 -0.091,-0.241 -0.063,-0.075 -0.15,-0.113 -0.264,-0.113 m -5.304,0.354 c 0,-0.236 -0.119,-0.354 -0.353,-0.354 l -2.477,0 c -0.396,0 -0.732,0.138 -1.005,0.41 -0.273,0.274 -0.41,0.609 -0.41,1.006 l 0,5.312 c 0,0.075 0.036,0.153 0.106,0.232 0.07,0.08 0.152,0.121 0.249,0.121 0.084,0 0.164,-0.031 0.239,-0.092 0.075,-0.06 0.113,-0.15 0.113,-0.261 l 0,-5.312 c 0,-0.198 0.067,-0.365 0.206,-0.503 0.137,-0.138 0.303,-0.205 0.502,-0.205 l 2.122,0 0,6.02 c 0,0.075 0.036,0.153 0.106,0.232 0.07,0.08 0.152,0.121 0.249,0.121 0.085,0 0.164,-0.031 0.239,-0.092 0.075,-0.06 0.114,-0.15 0.114,-0.261 l 0,-6.374 z m -5.66,-0.006 c 0,-0.114 -0.034,-0.204 -0.099,-0.271 -0.066,-0.056 -0.152,-0.085 -0.254,-0.085 -0.043,0 -0.125,0.029 -0.249,0.085 -0.07,0.058 -0.106,0.148 -0.106,0.271 l 0,8.857 -1.499,0 -2.76,-8.959 c -0.056,-0.169 -0.167,-0.254 -0.333,-0.254 -0.099,0 -0.184,0.031 -0.259,0.097 -0.072,0.062 -0.108,0.147 -0.108,0.252 l 0.021,0.118 2.837,9.206 c 0.051,0.166 0.165,0.248 0.338,0.248 l 2.118,0 c 0.234,0 0.353,-0.118 0.353,-0.354 l 0,-9.211 z"
             id="path132"
             style="fill:#231f20;fill-opacity:1;fill-rule:evenodd;stroke:none" /></g><g
           transform="translate(77.2842,88.2188)"
           id="g134"><path
             d="M 0,0 C 0.084,0 0.164,-0.039 0.239,-0.114 0.314,-0.188 0.353,-0.269 0.353,-0.354 0.353,-0.44 0.321,-0.52 0.261,-0.595 0.2,-0.67 0.111,-0.708 0,-0.708 c -0.109,0 -0.198,0.033 -0.263,0.099 -0.061,0.075 -0.092,0.159 -0.092,0.255 0,0.051 0.029,0.125 0.089,0.216 C -0.208,-0.046 -0.118,0 0,0 m -1.77,-0.354 c 0,-0.113 -0.034,-0.203 -0.099,-0.27 -0.065,-0.056 -0.152,-0.084 -0.254,-0.084 -0.043,0 -0.125,0.028 -0.248,0.084 -0.07,0.059 -0.107,0.147 -0.107,0.269 l 0,5.198 -1.47,-2.211 C -4.035,2.494 -4.134,2.426 -4.245,2.426 c -0.109,0 -0.208,0.068 -0.299,0.206 l -1.471,2.211 0,-5.198 c 0,-0.112 -0.034,-0.202 -0.099,-0.269 -0.065,-0.056 -0.152,-0.084 -0.253,-0.084 -0.044,0 -0.126,0.028 -0.249,0.084 -0.07,0.059 -0.107,0.147 -0.107,0.27 l 0,6.379 c 0,0.099 0.037,0.186 0.107,0.256 0.07,0.071 0.154,0.107 0.254,0.107 0.043,0 0.093,-0.015 0.149,-0.044 0.055,-0.015 0.104,-0.053 0.142,-0.121 l 1.826,-2.747 1.823,2.743 c 0.082,0.113 0.183,0.169 0.304,0.169 0.049,0 0.118,-0.034 0.21,-0.102 0.092,-0.07 0.138,-0.157 0.138,-0.265 l 0,-6.375 z M -8.618,2.835 C -8.297,2.55 -8.137,2.196 -8.137,1.771 l 0,-1.063 c 0,-0.382 -0.15,-0.716 -0.447,-0.998 -0.104,-0.095 -0.261,-0.196 -0.474,-0.305 -0.227,-0.075 -0.417,-0.113 -0.571,-0.113 l -1.063,0 c -0.283,0 -0.543,0.084 -0.785,0.251 -0.239,0.167 -0.427,0.411 -0.558,0.728 l -0.022,0.125 c 0,0.084 0.037,0.165 0.107,0.235 0.07,0.07 0.157,0.106 0.261,0.106 0.157,0 0.263,-0.078 0.318,-0.234 0.044,-0.119 0.131,-0.242 0.264,-0.375 C -10.987,0.043 -10.847,0 -10.692,0 l 1.063,0 c 0.197,0 0.378,0.067 0.543,0.205 0.161,0.148 0.241,0.315 0.241,0.503 l 0,1.063 c 0,0.184 -0.08,0.348 -0.241,0.494 -0.16,0.142 -0.341,0.214 -0.543,0.214 l -0.708,0 c -0.109,0 -0.196,0.034 -0.261,0.1 -0.06,0.074 -0.091,0.159 -0.091,0.256 0,0.051 0.028,0.123 0.089,0.215 0.058,0.092 0.147,0.138 0.263,0.138 l 0.708,0 c 0.197,0 0.378,0.067 0.543,0.205 0.161,0.145 0.241,0.314 0.241,0.503 l 0,1.061 c 0,0.184 -0.08,0.348 -0.241,0.493 -0.16,0.143 -0.341,0.215 -0.543,0.215 l -0.708,0 c -0.143,0 -0.278,-0.044 -0.408,-0.131 -0.128,-0.087 -0.217,-0.208 -0.263,-0.357 -0.015,-0.034 -0.061,-0.094 -0.136,-0.187 l -0.043,-0.019 -0.147,-0.035 c -0.095,0 -0.179,0.03 -0.251,0.096 -0.073,0.063 -0.112,0.145 -0.112,0.243 l 0.022,0.126 c 0.099,0.295 0.271,0.53 0.514,0.706 0.242,0.176 0.517,0.266 0.824,0.266 l 0.708,0 c 0.395,0 0.743,-0.141 1.043,-0.421 0.299,-0.28 0.449,-0.613 0.449,-0.995 l 0,-1.061 c 0,-0.237 -0.041,-0.438 -0.121,-0.602 -0.056,-0.157 -0.177,-0.31 -0.36,-0.459 m -4.817,-3.118 c 0,-0.113 -0.034,-0.203 -0.1,-0.271 -0.065,-0.055 -0.152,-0.085 -0.253,-0.085 -0.043,0 -0.125,0.03 -0.249,0.085 -0.069,0.058 -0.106,0.148 -0.106,0.271 l 0,7.596 -3.581,-7.746 c -0.084,-0.169 -0.2,-0.254 -0.345,-0.254 -0.084,0 -0.164,0.037 -0.234,0.107 -0.061,0.074 -0.092,0.174 -0.092,0.297 l 0,9.203 c 0,0.078 0.036,0.155 0.106,0.234 0.071,0.08 0.152,0.121 0.249,0.121 0.084,0 0.164,-0.031 0.239,-0.091 0.075,-0.063 0.113,-0.15 0.113,-0.264 l 0,-7.596 3.582,7.746 c 0.084,0.169 0.2,0.254 0.345,0.254 0.073,0 0.142,-0.039 0.217,-0.114 0.072,-0.074 0.109,-0.171 0.109,-0.29 l 0,-9.203 z"
             id="path136"
             style="fill:#231f20;fill-opacity:1;fill-rule:evenodd;stroke:none" /></g><g
           transform="translate(149.8306,87.8652)"
           id="g138"><path
             d="m 0,0 c 0,-0.113 -0.034,-0.203 -0.099,-0.271 -0.065,-0.055 -0.152,-0.083 -0.254,-0.083 -0.043,0 -0.125,0.028 -0.248,0.083 -0.07,0.059 -0.107,0.148 -0.107,0.269 l 0,5.198 -1.47,-2.211 C -2.265,2.848 -2.364,2.779 -2.475,2.779 c -0.109,0 -0.208,0.069 -0.299,0.206 l -1.471,2.211 0,-5.198 c 0,-0.111 -0.034,-0.201 -0.099,-0.269 -0.065,-0.055 -0.152,-0.083 -0.253,-0.083 -0.044,0 -0.126,0.028 -0.249,0.083 -0.07,0.059 -0.107,0.148 -0.107,0.271 l 0,6.379 c 0,0.099 0.037,0.185 0.107,0.256 0.07,0.07 0.154,0.106 0.254,0.106 0.043,0 0.094,-0.014 0.149,-0.044 0.055,-0.014 0.104,-0.052 0.143,-0.121 l 1.825,-2.747 1.823,2.743 c 0.082,0.114 0.183,0.169 0.304,0.169 0.049,0 0.119,-0.034 0.21,-0.101 C -0.046,6.569 0,6.482 0,6.374 L 0,0 z m -7.075,-0.354 -2.115,0 c -0.391,0 -0.727,0.139 -1.004,0.417 -0.278,0.279 -0.418,0.615 -0.418,1.005 l 0,5.313 c 0,0.075 0.036,0.152 0.106,0.232 0.07,0.082 0.152,0.12 0.249,0.12 0.084,0 0.164,-0.028 0.239,-0.091 0.075,-0.061 0.113,-0.148 0.113,-0.261 l 0,-5.313 c 0,-0.198 0.072,-0.367 0.216,-0.507 0.144,-0.138 0.311,-0.207 0.499,-0.207 l 2.115,0 0,6.027 c 0,0.075 0.036,0.152 0.107,0.232 0.07,0.082 0.152,0.12 0.248,0.12 0.085,0 0.164,-0.028 0.239,-0.091 0.075,-0.061 0.114,-0.148 0.114,-0.261 l 0,-8.145 c 0,-0.386 -0.135,-0.72 -0.406,-0.998 C -7.046,-3.04 -7.379,-3.18 -7.775,-3.18 l -2.13,0 c -0.06,0 -0.149,0.036 -0.261,0.106 -0.062,0.075 -0.094,0.157 -0.094,0.249 0,0.041 0.029,0.124 0.087,0.247 0.056,0.069 0.145,0.106 0.268,0.106 l 2.13,0 c 0.193,0 0.358,0.068 0.495,0.205 0.137,0.138 0.205,0.305 0.205,0.503 l 0,1.41 z m -7.224,4.064 2.221,-3.519 0.058,-0.198 c 0,-0.085 -0.039,-0.169 -0.113,-0.249 -0.075,-0.065 -0.162,-0.098 -0.256,-0.098 -0.061,0 -0.111,0.011 -0.154,0.036 -0.044,0.021 -0.085,0.064 -0.129,0.125 l -2.115,3.35 -0.77,-0.856 0,-2.303 c 0,-0.111 -0.034,-0.201 -0.099,-0.269 -0.066,-0.055 -0.152,-0.083 -0.254,-0.083 -0.043,0 -0.125,0.028 -0.248,0.083 -0.071,0.059 -0.107,0.148 -0.107,0.271 l 0,6.374 c 0,0.074 0.036,0.152 0.107,0.231 0.07,0.081 0.152,0.122 0.248,0.122 0.085,0 0.164,-0.032 0.239,-0.092 0.075,-0.061 0.114,-0.151 0.114,-0.264 l 0,-3.009 2.929,3.237 c 0.08,0.084 0.167,0.128 0.26,0.128 0.085,0 0.167,-0.037 0.244,-0.112 0.08,-0.072 0.119,-0.159 0.119,-0.259 0,-0.088 -0.034,-0.168 -0.099,-0.239 L -14.299,3.71 z m -4.095,-2.648 0,4.249 c 0,0.197 -0.068,0.364 -0.206,0.502 -0.137,0.138 -0.304,0.206 -0.502,0.206 l -1.415,0 c -0.198,0 -0.364,-0.068 -0.502,-0.206 -0.138,-0.138 -0.206,-0.305 -0.206,-0.502 l 0,-4.249 c 0,-0.199 0.068,-0.366 0.206,-0.503 0.138,-0.138 0.304,-0.205 0.502,-0.205 l 1.415,0 c 0.198,0 0.365,0.067 0.502,0.205 0.138,0.137 0.206,0.304 0.206,0.503 m 0.707,0 c 0,-0.397 -0.138,-0.733 -0.41,-1.006 -0.273,-0.273 -0.609,-0.41 -1.005,-0.41 l -1.415,0 c -0.396,0 -0.732,0.137 -1.004,0.41 -0.273,0.273 -0.411,0.609 -0.411,1.006 l 0,4.249 c 0,0.355 0.136,0.678 0.403,0.973 0.268,0.295 0.607,0.443 1.012,0.443 l 1.415,0 c 0.392,0 0.725,-0.136 1.002,-0.407 0.275,-0.272 0.413,-0.608 0.413,-1.009 l 0,-4.249 z m -6.367,5.665 0,1.423 c 0,0.194 -0.068,0.358 -0.205,0.496 -0.138,0.137 -0.307,0.205 -0.51,0.205 l -2.467,0 c -0.109,0 -0.199,0.034 -0.264,0.099 -0.06,0.075 -0.092,0.159 -0.092,0.256 0,0.051 0.029,0.123 0.09,0.215 0.058,0.092 0.147,0.138 0.266,0.138 l 2.467,0 c 0.392,0 0.727,-0.14 1.005,-0.418 0.278,-0.278 0.417,-0.609 0.417,-0.991 l 0,-7.088 c 0,-0.387 -0.134,-0.72 -0.405,-0.999 -0.273,-0.278 -0.611,-0.417 -1.017,-0.417 l -1.4,0 c -0.392,0 -0.727,0.139 -1.005,0.417 -0.277,0.279 -0.418,0.612 -0.418,0.999 l 0,4.249 c 0,0.396 0.138,0.732 0.411,1.004 0.273,0.274 0.611,0.412 1.012,0.412 l 2.115,0 z m 0,-0.708 -2.115,0 c -0.198,0 -0.367,-0.071 -0.507,-0.208 -0.138,-0.14 -0.208,-0.307 -0.208,-0.5 l 0,-4.249 c 0,-0.199 0.068,-0.366 0.205,-0.503 0.138,-0.138 0.307,-0.205 0.51,-0.205 l 1.4,0 c 0.198,0 0.367,0.069 0.507,0.207 0.138,0.14 0.208,0.307 0.208,0.501 l 0,4.957 z m -9.912,0.002 0,2.136 c 0,0.213 -0.07,0.382 -0.208,0.51 -0.139,0.128 -0.304,0.191 -0.493,0.191 -0.197,0 -0.364,-0.06 -0.501,-0.183 -0.138,-0.114 -0.206,-0.288 -0.206,-0.518 l 0,-2.136 c 0,-0.222 0.072,-0.401 0.22,-0.535 0.133,-0.118 0.295,-0.175 0.487,-0.175 0.143,0 0.303,0.055 0.481,0.168 0.147,0.133 0.22,0.315 0.22,0.542 M -36.789,0 c 0,-0.063 -0.036,-0.149 -0.106,-0.263 -0.075,-0.06 -0.157,-0.091 -0.246,-0.091 l -0.179,0.042 -0.14,0.163 -3.574,7.746 0,-7.599 c 0,-0.111 -0.033,-0.201 -0.099,-0.269 -0.065,-0.055 -0.152,-0.083 -0.253,-0.083 -0.044,0 -0.126,0.028 -0.249,0.083 -0.07,0.059 -0.106,0.148 -0.106,0.271 l 0,9.206 c 0,0.075 0.036,0.152 0.106,0.232 0.071,0.083 0.152,0.121 0.249,0.121 0.055,0 0.113,-0.014 0.171,-0.041 0.06,-0.029 0.109,-0.084 0.145,-0.164 l 3.573,-7.747 0,7.599 c 0,0.075 0.037,0.152 0.107,0.232 0.07,0.083 0.152,0.121 0.249,0.121 0.084,0 0.164,-0.029 0.239,-0.092 0.074,-0.06 0.113,-0.148 0.113,-0.261 l 0,-9.206 z m 3.531,6.021 c 0,-0.45 -0.148,-0.805 -0.44,-1.063 -0.263,-0.237 -0.587,-0.355 -0.969,-0.355 -0.381,0 -0.704,0.115 -0.968,0.347 -0.297,0.264 -0.446,0.621 -0.446,1.071 l 0,2.134 c 0,0.44 0.147,0.79 0.439,1.051 0.273,0.234 0.599,0.353 0.975,0.353 0.382,0 0.706,-0.116 0.969,-0.348 0.292,-0.254 0.44,-0.607 0.44,-1.056 l 0,-2.134 z"
             id="path140"
             style="fill:#231f20;fill-opacity:1;fill-rule:evenodd;stroke:none" /></g><g
           transform="translate(197.8052,87.6699)"
           id="g142"><path
             d="M 0,0 C 0.084,0 0.164,-0.038 0.239,-0.113 0.314,-0.188 0.353,-0.269 0.353,-0.353 0.353,-0.439 0.321,-0.52 0.261,-0.595 0.2,-0.67 0.111,-0.708 0,-0.708 c -0.108,0 -0.198,0.033 -0.263,0.1 -0.061,0.074 -0.092,0.159 -0.092,0.255 0,0.051 0.029,0.124 0.089,0.215 C -0.208,-0.046 -0.118,0 0,0 m -1.77,-0.353 c 0,-0.113 -0.034,-0.203 -0.099,-0.271 -0.065,-0.055 -0.152,-0.084 -0.254,-0.084 -0.043,0 -0.125,0.029 -0.248,0.084 -0.07,0.059 -0.107,0.148 -0.107,0.271 l 0,5.31 c 0,0.198 -0.067,0.365 -0.205,0.503 -0.137,0.138 -0.304,0.205 -0.502,0.205 l -2.123,0 0,-6.018 c 0,-0.113 -0.033,-0.203 -0.098,-0.271 -0.065,-0.055 -0.153,-0.084 -0.254,-0.084 -0.043,0 -0.126,0.029 -0.249,0.084 -0.07,0.059 -0.106,0.148 -0.106,0.271 l 0,6.374 c 0,0.234 0.119,0.352 0.355,0.352 l 2.475,0 c 0.391,0 0.725,-0.135 1.002,-0.406 0.275,-0.273 0.413,-0.609 0.413,-1.01 l 0,-5.31 z m -6.367,6.726 0,1.424 c 0,0.193 -0.068,0.357 -0.206,0.495 -0.137,0.138 -0.306,0.206 -0.509,0.206 l -2.468,0 c -0.108,0 -0.198,0.034 -0.263,0.099 -0.06,0.075 -0.092,0.159 -0.092,0.257 0,0.05 0.029,0.123 0.09,0.214 0.058,0.092 0.147,0.138 0.265,0.138 l 2.468,0 c 0.391,0 0.727,-0.141 1.005,-0.418 C -7.57,8.51 -7.43,8.179 -7.43,7.797 l 0,-7.089 c 0,-0.387 -0.135,-0.72 -0.405,-0.998 -0.273,-0.277 -0.611,-0.418 -1.017,-0.418 l -1.4,0 c -0.392,0 -0.727,0.141 -1.005,0.418 -0.277,0.278 -0.418,0.611 -0.418,0.998 l 0,4.249 c 0,0.397 0.138,0.732 0.411,1.005 0.273,0.273 0.611,0.411 1.012,0.411 l 2.115,0 z m 0,-0.708 -2.115,0 c -0.199,0 -0.368,-0.07 -0.507,-0.208 -0.138,-0.14 -0.208,-0.307 -0.208,-0.5 l 0,-4.249 c 0,-0.198 0.068,-0.364 0.205,-0.502 C -10.624,0.067 -10.455,0 -10.252,0 l 1.4,0 c 0.198,0 0.367,0.07 0.507,0.208 0.138,0.14 0.208,0.307 0.208,0.5 l 0,4.957 z m -5.66,-4.957 0,4.249 c 0,0.198 -0.068,0.365 -0.205,0.503 -0.138,0.138 -0.304,0.205 -0.502,0.205 l -1.415,0 c -0.199,0 -0.365,-0.067 -0.502,-0.205 -0.139,-0.138 -0.206,-0.305 -0.206,-0.503 l 0,-4.249 c 0,-0.198 0.067,-0.364 0.206,-0.502 C -16.284,0.067 -16.118,0 -15.919,0 l 1.415,0 c 0.198,0 0.364,0.067 0.502,0.206 0.137,0.138 0.205,0.304 0.205,0.502 m 0.708,0 c 0,-0.396 -0.138,-0.732 -0.411,-1.005 -0.273,-0.273 -0.608,-0.411 -1.004,-0.411 l -1.415,0 c -0.396,0 -0.732,0.138 -1.005,0.411 -0.273,0.273 -0.41,0.609 -0.41,1.005 l 0,4.249 c 0,0.356 0.135,0.679 0.403,0.974 0.268,0.296 0.606,0.442 1.012,0.442 l 1.415,0 c 0.391,0 0.724,-0.135 1.002,-0.406 0.275,-0.273 0.413,-0.609 0.413,-1.01 l 0,-4.249 z m -5.653,-1.063 c 0,-0.114 -0.034,-0.204 -0.099,-0.269 -0.065,-0.058 -0.153,-0.084 -0.254,-0.084 -0.043,0 -0.125,0.026 -0.249,0.084 -0.069,0.057 -0.106,0.145 -0.106,0.269 l 0,8.853 -3.545,0 0,-8.853 c 0,-0.114 -0.033,-0.204 -0.098,-0.269 -0.066,-0.058 -0.153,-0.084 -0.254,-0.084 -0.043,0 -0.126,0.026 -0.249,0.084 -0.07,0.057 -0.106,0.145 -0.106,0.269 l 0,9.206 c 0,0.237 0.119,0.355 0.355,0.355 l 4.252,0 c 0.235,0 0.353,-0.118 0.353,-0.355 l 0,-9.206 z"
             id="path144"
             style="fill:#231f20;fill-opacity:1;fill-rule:evenodd;stroke:none" /></g><g
           transform="translate(240.5581,88.1895)"
           id="g146"><path
             d="m 0,0 c 0.169,-0.056 0.256,-0.167 0.256,-0.334 0,-0.104 -0.034,-0.19 -0.099,-0.261 -0.058,-0.07 -0.138,-0.106 -0.241,-0.106 l -0.128,0.022 c -0.104,0.029 -0.218,0.094 -0.339,0.199 -0.043,0.023 -0.137,0.115 -0.282,0.275 -0.28,-0.317 -0.633,-0.474 -1.063,-0.474 l -1.415,0 c -0.396,0 -0.731,0.138 -1.004,0.41 -0.273,0.274 -0.411,0.61 -0.411,1.006 l 0,4.249 c 0,0.356 0.136,0.679 0.404,0.974 0.268,0.295 0.606,0.442 1.011,0.442 l 2.478,0 c 0.234,0 0.352,-0.118 0.352,-0.355 l 0,-5.31 c 0,-0.142 0.044,-0.29 0.128,-0.447 C -0.283,0.182 -0.165,0.085 0,0 m -1.188,0.737 0,4.957 -2.123,0 C -3.509,5.694 -3.675,5.627 -3.813,5.489 -3.951,5.351 -4.018,5.184 -4.018,4.986 l 0,-4.249 c 0,-0.198 0.067,-0.365 0.205,-0.503 0.138,-0.137 0.304,-0.205 0.502,-0.205 l 1.415,0 c 0.198,0 0.365,0.068 0.502,0.205 0.139,0.138 0.206,0.305 0.206,0.503 m -8.49,4.957 -2.122,0 0,-6.018 c 0,-0.114 -0.034,-0.203 -0.099,-0.271 -0.065,-0.055 -0.152,-0.084 -0.254,-0.084 -0.043,0 -0.125,0.029 -0.249,0.084 -0.07,0.059 -0.106,0.148 -0.106,0.271 l 0,6.374 c 0,0.234 0.118,0.352 0.355,0.352 l 4.597,0 c 0.392,0 0.725,-0.135 1.003,-0.406 0.275,-0.272 0.412,-0.608 0.412,-1.01 l 0,-5.31 c 0,-0.114 -0.033,-0.203 -0.099,-0.271 -0.065,-0.055 -0.152,-0.084 -0.253,-0.084 -0.044,0 -0.126,0.029 -0.249,0.084 -0.07,0.059 -0.106,0.148 -0.106,0.271 l 0,5.31 c 0,0.198 -0.068,0.365 -0.205,0.503 -0.138,0.138 -0.305,0.205 -0.503,0.205 l -1.414,0 0,-6.018 c 0,-0.114 -0.034,-0.203 -0.1,-0.271 -0.065,-0.055 -0.152,-0.084 -0.253,-0.084 -0.043,0 -0.126,0.029 -0.249,0.084 -0.07,0.059 -0.106,0.148 -0.106,0.271 l 0,6.018 z M -13.442,0 c 0.169,-0.056 0.256,-0.167 0.256,-0.334 0,-0.104 -0.034,-0.19 -0.099,-0.261 -0.058,-0.07 -0.138,-0.106 -0.242,-0.106 l -0.128,0.022 c -0.104,0.029 -0.217,0.094 -0.338,0.199 -0.044,0.023 -0.137,0.115 -0.282,0.275 -0.281,-0.317 -0.633,-0.474 -1.062,-0.474 l -1.416,0 c -0.396,0 -0.731,0.138 -1.004,0.41 -0.273,0.274 -0.41,0.61 -0.41,1.006 l 0,4.249 c 0,0.356 0.134,0.679 0.402,0.974 0.268,0.295 0.606,0.442 1.012,0.442 l 2.478,0 c 0.233,0 0.352,-0.118 0.352,-0.355 l 0,-5.31 c 0,-0.142 0.044,-0.29 0.128,-0.447 0.07,-0.108 0.189,-0.205 0.353,-0.29 m -1.188,0.737 0,4.957 -2.123,0 c -0.198,0 -0.365,-0.067 -0.502,-0.205 -0.138,-0.138 -0.205,-0.305 -0.205,-0.503 l 0,-4.249 c 0,-0.198 0.067,-0.365 0.205,-0.503 0.137,-0.137 0.304,-0.205 0.502,-0.205 l 1.416,0 c 0.197,0 0.364,0.068 0.502,0.205 0.137,0.138 0.205,0.305 0.205,0.503 m -8.816,-0.708 2.808,0 0,8.505 -2.159,0 -0.649,-8.505 z m 3.863,0 c 0.235,0 0.353,-0.119 0.353,-0.353 l 0,-0.7 c 0,-0.085 -0.039,-0.167 -0.113,-0.243 -0.075,-0.074 -0.156,-0.113 -0.24,-0.113 -0.086,0 -0.167,0.031 -0.241,0.092 -0.075,0.062 -0.114,0.149 -0.114,0.264 l 0,0.345 -4.245,0 0,-0.345 c 0,-0.087 -0.038,-0.167 -0.113,-0.243 -0.075,-0.074 -0.155,-0.113 -0.239,-0.113 -0.087,0 -0.167,0.031 -0.242,0.092 -0.074,0.062 -0.113,0.149 -0.113,0.264 l 0,0.7 c 0,0.234 0.118,0.353 0.355,0.353 l 0.374,0 0.686,8.887 c 0,0.099 0.031,0.176 0.092,0.234 l 0.091,0.056 0.172,0.036 2.837,0 c 0.234,0 0.353,-0.118 0.353,-0.352 l 0,-8.854 0.347,-0.007 z"
             id="path148"
             style="fill:#231f20;fill-opacity:1;fill-rule:evenodd;stroke:none" /></g><g
           transform="translate(95.2866,73.4971)"
           id="g150"><path
             d="M 0,0 C 0.084,0 0.164,-0.039 0.239,-0.114 0.314,-0.188 0.352,-0.269 0.352,-0.354 0.352,-0.44 0.321,-0.52 0.26,-0.595 0.2,-0.67 0.111,-0.708 0,-0.708 c -0.109,0 -0.198,0.033 -0.263,0.099 -0.061,0.075 -0.092,0.159 -0.092,0.255 0,0.051 0.029,0.125 0.089,0.216 C -0.208,-0.046 -0.119,0 0,0 M -2.197,5.97 -2.183,5.955 -2.168,5.94 c 0.263,-0.273 0.396,-0.601 0.396,-0.983 l 0,-4.249 c 0,-0.387 -0.136,-0.721 -0.406,-0.998 -0.273,-0.278 -0.611,-0.418 -1.017,-0.418 l -1.398,0 c -0.391,0 -0.726,0.14 -1.004,0.418 -0.278,0.277 -0.418,0.611 -0.418,0.998 l 0,4.249 c 0,0.397 0.138,0.732 0.411,1.005 0.272,0.273 0.61,0.411 1.011,0.411 l 0.961,0 -2.269,2.224 -0.114,0.149 c -0.034,0.051 -0.05,0.107 -0.05,0.162 0,0.085 0.036,0.155 0.106,0.213 0.07,0.056 0.168,0.084 0.296,0.084 l 3.538,0 c 0.084,0 0.164,-0.038 0.239,-0.113 0.075,-0.075 0.114,-0.154 0.114,-0.239 0,-0.087 -0.032,-0.167 -0.092,-0.242 -0.061,-0.075 -0.15,-0.114 -0.261,-0.114 l -2.668,0 2.596,-2.527 z m -0.283,-5.262 0,4.249 c 0,0.197 -0.067,0.364 -0.205,0.502 -0.135,0.139 -0.307,0.206 -0.51,0.206 l -1.398,0 C -4.791,5.665 -4.96,5.595 -5.1,5.457 -5.237,5.317 -5.308,5.15 -5.308,4.957 l 0,-4.249 C -5.308,0.51 -5.24,0.343 -5.102,0.205 -4.967,0.067 -4.795,0 -4.593,0 l 1.398,0 c 0.198,0 0.367,0.069 0.507,0.207 0.138,0.141 0.208,0.308 0.208,0.501 m -4.469,-0.737 c 0.169,-0.056 0.256,-0.167 0.256,-0.334 0,-0.104 -0.034,-0.191 -0.099,-0.261 -0.059,-0.07 -0.138,-0.106 -0.242,-0.106 l -0.128,0.022 c -0.104,0.028 -0.217,0.094 -0.338,0.197 -0.043,0.025 -0.137,0.116 -0.283,0.277 -0.28,-0.318 -0.632,-0.474 -1.062,-0.474 l -1.415,0 c -0.396,0 -0.731,0.138 -1.004,0.41 -0.273,0.274 -0.411,0.61 -0.411,1.006 l 0,4.249 c 0,0.356 0.135,0.679 0.404,0.974 0.268,0.295 0.605,0.442 1.011,0.442 l 2.477,0 c 0.235,0 0.353,-0.118 0.353,-0.355 l 0,-5.31 c 0,-0.143 0.044,-0.29 0.128,-0.447 0.07,-0.11 0.188,-0.205 0.353,-0.29 m -1.188,0.737 0,4.957 -2.123,0 c -0.198,0 -0.365,-0.067 -0.502,-0.206 -0.138,-0.138 -0.205,-0.305 -0.205,-0.502 l 0,-4.249 c 0,-0.198 0.067,-0.365 0.205,-0.503 C -10.625,0.067 -10.458,0 -10.26,0 l 1.415,0 c 0.198,0 0.365,0.067 0.502,0.205 0.138,0.138 0.206,0.305 0.206,0.503 m -8.49,-1.424 0,-2.47 c 0,-0.085 -0.039,-0.167 -0.113,-0.242 -0.075,-0.074 -0.155,-0.113 -0.239,-0.113 -0.087,0 -0.167,0.031 -0.242,0.092 -0.075,0.062 -0.113,0.15 -0.113,0.263 l 0,9.207 c 0,0.234 0.118,0.352 0.355,0.352 l 2.481,0 c 0.382,0 0.713,-0.136 0.991,-0.406 0.278,-0.273 0.417,-0.607 0.417,-1.003 l 0,-4.256 c 0,-0.392 -0.135,-0.728 -0.405,-1.006 -0.273,-0.277 -0.606,-0.418 -1.003,-0.418 l -2.129,0 z m 0,0.708 2.129,0 c 0.184,0 0.348,0.071 0.489,0.213 0.142,0.143 0.212,0.31 0.212,0.503 l 0,4.256 c 0,0.193 -0.068,0.357 -0.205,0.495 -0.138,0.139 -0.302,0.206 -0.496,0.206 l -2.129,0 0,-5.673 z m -2.603,2.843 c 0.321,-0.285 0.48,-0.639 0.48,-1.064 l 0,-1.063 c 0,-0.382 -0.149,-0.716 -0.446,-0.998 -0.104,-0.095 -0.261,-0.196 -0.473,-0.305 -0.227,-0.075 -0.418,-0.113 -0.573,-0.113 l -1.062,0 c -0.283,0 -0.544,0.084 -0.785,0.251 -0.239,0.167 -0.428,0.411 -0.557,0.728 l -0.022,0.125 c 0,0.084 0.036,0.165 0.106,0.234 0.07,0.07 0.157,0.107 0.261,0.107 0.156,0 0.263,-0.078 0.318,-0.234 0.044,-0.119 0.13,-0.242 0.264,-0.375 C -21.599,0.043 -21.459,0 -21.304,0 l 1.062,0 c 0.198,0 0.379,0.067 0.543,0.205 0.162,0.148 0.242,0.315 0.242,0.503 l 0,1.063 c 0,0.184 -0.08,0.348 -0.242,0.494 -0.159,0.142 -0.34,0.214 -0.543,0.214 l -0.708,0 c -0.108,0 -0.195,0.034 -0.26,0.1 -0.061,0.074 -0.092,0.159 -0.092,0.256 0,0.051 0.029,0.123 0.09,0.215 0.058,0.092 0.147,0.138 0.262,0.138 l 0.708,0 c 0.198,0 0.379,0.067 0.543,0.205 0.162,0.145 0.242,0.314 0.242,0.503 l 0,1.061 c 0,0.184 -0.08,0.348 -0.242,0.493 -0.159,0.143 -0.34,0.215 -0.543,0.215 l -0.708,0 c -0.142,0 -0.277,-0.044 -0.407,-0.131 -0.128,-0.087 -0.218,-0.208 -0.264,-0.357 -0.014,-0.034 -0.06,-0.095 -0.135,-0.187 l -0.043,-0.019 -0.147,-0.036 c -0.095,0 -0.179,0.031 -0.252,0.096 -0.072,0.064 -0.111,0.146 -0.111,0.244 l 0.022,0.126 c 0.099,0.295 0.27,0.53 0.515,0.706 0.241,0.176 0.516,0.266 0.822,0.266 l 0.708,0 c 0.396,0 0.744,-0.141 1.043,-0.421 0.3,-0.28 0.449,-0.613 0.449,-0.995 l 0,-1.061 c 0,-0.237 -0.041,-0.438 -0.12,-0.602 -0.056,-0.157 -0.176,-0.31 -0.36,-0.459 m -4.344,-2.864 c 0.169,-0.056 0.256,-0.167 0.256,-0.334 0,-0.104 -0.034,-0.191 -0.099,-0.261 -0.058,-0.07 -0.138,-0.106 -0.242,-0.106 l -0.127,0.022 c -0.104,0.028 -0.218,0.094 -0.339,0.197 -0.043,0.025 -0.137,0.116 -0.282,0.277 -0.28,-0.318 -0.633,-0.474 -1.062,-0.474 l -1.415,0 c -0.396,0 -0.732,0.138 -1.005,0.41 -0.273,0.274 -0.41,0.61 -0.41,1.006 l 0,4.249 c 0,0.356 0.135,0.679 0.403,0.974 0.268,0.295 0.606,0.442 1.012,0.442 l 2.477,0 c 0.234,0 0.352,-0.118 0.352,-0.355 l 0,-5.31 c 0,-0.143 0.044,-0.29 0.129,-0.447 0.07,-0.11 0.188,-0.205 0.352,-0.29 m -1.188,0.737 0,4.957 -2.122,0 c -0.199,0 -0.365,-0.067 -0.503,-0.206 -0.137,-0.138 -0.205,-0.305 -0.205,-0.502 l 0,-4.249 c 0,-0.198 0.068,-0.365 0.205,-0.503 C -27.249,0.067 -27.083,0 -26.884,0 l 1.415,0 c 0.198,0 0.364,0.067 0.502,0.205 0.137,0.138 0.205,0.305 0.205,0.503 m -9.197,2.84 0,-3.903 c 0,-0.114 -0.034,-0.204 -0.099,-0.269 -0.066,-0.058 -0.152,-0.084 -0.254,-0.084 -0.043,0 -0.126,0.026 -0.249,0.084 -0.07,0.056 -0.106,0.145 -0.106,0.269 l 0,9.206 c 0,0.236 0.119,0.354 0.355,0.354 l 2.475,0 c 0.58,0 1.079,-0.205 1.5,-0.618 0.42,-0.413 0.63,-0.916 0.63,-1.506 l 0,-1.416 c 0,-0.58 -0.208,-1.078 -0.623,-1.494 -0.416,-0.415 -0.918,-0.623 -1.507,-0.623 l -2.122,0 z m 0,0.708 2.122,0 c 0.382,0 0.715,0.136 0.998,0.403 0.282,0.269 0.424,0.605 0.424,1.006 l 0,1.416 c 0,0.387 -0.14,0.721 -0.417,0.998 -0.278,0.278 -0.614,0.418 -1.005,0.418 l -2.122,0 0,-4.241 z"
             id="path152"
             style="fill:#231f20;fill-opacity:1;fill-rule:evenodd;stroke:none" /></g><g
           transform="translate(84.3218,59.3232)"
           id="g154"><path
             d="M 0,0 C 0.084,0 0.164,-0.038 0.239,-0.113 0.313,-0.188 0.352,-0.268 0.352,-0.353 0.352,-0.439 0.321,-0.52 0.26,-0.594 0.2,-0.669 0.111,-0.708 0,-0.708 c -0.109,0 -0.198,0.034 -0.264,0.1 -0.06,0.074 -0.091,0.159 -0.091,0.255 0,0.051 0.028,0.124 0.089,0.215 C -0.208,-0.046 -0.119,0 0,0 m -4.153,6.374 0.961,0 c 0.396,0 0.732,-0.136 1.009,-0.409 0.275,-0.271 0.413,-0.607 0.413,-1.008 l 0,-4.249 c 0,-0.387 -0.135,-0.72 -0.406,-0.998 -0.273,-0.277 -0.611,-0.418 -1.016,-0.418 l -1.401,0 c -0.391,0 -0.727,0.141 -1.005,0.418 -0.277,0.278 -0.417,0.611 -0.417,0.998 l 0,4.249 0,2.84 c 0,0.44 0.145,0.788 0.437,1.049 0.273,0.234 0.599,0.353 0.973,0.353 0.382,0 0.705,-0.116 0.968,-0.348 0.293,-0.254 0.438,-0.607 0.438,-1.054 l 0,-0.256 -0.044,-0.177 C -3.284,7.217 -3.374,7.067 -3.511,6.91 -3.538,6.869 -3.644,6.777 -3.827,6.635 L -4.153,6.374 z m 1.675,-5.666 0,4.249 c 0,0.198 -0.067,0.365 -0.205,0.503 -0.138,0.138 -0.307,0.206 -0.509,0.206 l -1.401,0 C -4.791,5.666 -4.96,5.596 -5.1,5.458 -5.237,5.317 -5.308,5.15 -5.308,4.957 l 0,-4.249 C -5.308,0.51 -5.24,0.344 -5.102,0.206 -4.965,0.068 -4.795,0 -4.593,0 l 1.401,0 c 0.198,0 0.366,0.07 0.507,0.208 0.137,0.141 0.207,0.307 0.207,0.5 m -2.83,5.666 0.546,0.374 c 0.145,0.105 0.348,0.278 0.609,0.518 l 0.084,0.091 0.113,0.184 c 0.042,0.072 0.063,0.157 0.063,0.256 0,0.213 -0.07,0.382 -0.208,0.511 -0.139,0.127 -0.306,0.19 -0.499,0.19 -0.198,0 -0.365,-0.06 -0.502,-0.184 C -5.24,8.2 -5.308,8.029 -5.308,7.797 l 0,-1.423 z m -2.829,-5.666 0,4.249 c 0,0.198 -0.068,0.365 -0.206,0.503 -0.137,0.138 -0.304,0.206 -0.502,0.206 l -1.415,0 c -0.198,0 -0.365,-0.068 -0.502,-0.206 -0.138,-0.138 -0.205,-0.305 -0.205,-0.503 l 0,-4.249 c 0,-0.198 0.067,-0.364 0.205,-0.502 C -10.625,0.068 -10.458,0 -10.26,0 l 1.415,0 c 0.198,0 0.365,0.068 0.502,0.206 0.138,0.138 0.206,0.304 0.206,0.502 m 0.707,0 c 0,-0.395 -0.137,-0.731 -0.41,-1.005 -0.273,-0.273 -0.609,-0.411 -1.005,-0.411 l -1.415,0 c -0.396,0 -0.732,0.138 -1.004,0.411 -0.273,0.274 -0.411,0.61 -0.411,1.005 l 0,4.249 c 0,0.356 0.135,0.68 0.404,0.974 0.267,0.296 0.605,0.443 1.011,0.443 l 1.415,0 c 0.391,0 0.725,-0.136 1.002,-0.406 0.276,-0.274 0.413,-0.61 0.413,-1.011 l 0,-4.249 z m -9.197,-1.423 0,-2.47 c 0,-0.085 -0.039,-0.167 -0.114,-0.242 -0.074,-0.075 -0.154,-0.114 -0.238,-0.114 -0.087,0 -0.167,0.032 -0.242,0.093 -0.075,0.062 -0.113,0.149 -0.113,0.263 l 0,9.206 c 0,0.234 0.118,0.353 0.355,0.353 l 2.481,0 c 0.382,0 0.713,-0.136 0.99,-0.406 0.278,-0.274 0.418,-0.607 0.418,-1.003 l 0,-4.257 c 0,-0.392 -0.135,-0.727 -0.406,-1.005 -0.273,-0.278 -0.606,-0.418 -1.002,-0.418 l -2.129,0 z m 0,0.708 2.129,0 c 0.184,0 0.348,0.07 0.488,0.213 0.143,0.143 0.213,0.309 0.213,0.502 l 0,4.257 c 0,0.193 -0.068,0.357 -0.205,0.495 -0.138,0.138 -0.302,0.206 -0.496,0.206 l -2.129,0 0,-5.673 z m -2.116,-0.347 c 0,-0.115 -0.033,-0.204 -0.098,-0.269 -0.066,-0.059 -0.153,-0.085 -0.254,-0.085 -0.043,0 -0.126,0.026 -0.249,0.085 -0.07,0.056 -0.106,0.144 -0.106,0.269 l 0,8.852 -3.545,0 0,-8.852 c 0,-0.115 -0.034,-0.204 -0.098,-0.269 -0.066,-0.059 -0.153,-0.085 -0.254,-0.085 -0.044,0 -0.126,0.026 -0.249,0.085 -0.07,0.056 -0.106,0.144 -0.106,0.269 l 0,9.205 c 0,0.237 0.118,0.355 0.355,0.355 l 4.252,0 c 0.234,0 0.352,-0.118 0.352,-0.355 l 0,-9.205 z"
             id="path156"
             style="fill:#231f20;fill-opacity:1;fill-rule:evenodd;stroke:none" /></g><g
           transform="translate(37.3506,13.6719)"
           id="g158"><path
             d="M 0,0 0,411.023"
             id="path160"
             style="fill:none;stroke:#231f20;stroke-width:0.56699997;stroke-linecap:butt;stroke-linejoin:miter;stroke-miterlimit:22.9260006;stroke-opacity:1;stroke-dasharray:none" /></g><g
           transform="translate(23.1772,13.6719)"
           id="g162"><path
             d="M 0,0 0,411.023"
             id="path164"
             style="fill:none;stroke:#231f20;stroke-width:0.56699997;stroke-linecap:square;stroke-linejoin:miter;stroke-miterlimit:22.9260006;stroke-opacity:1;stroke-dasharray:none" /></g><g
           transform="translate(23.1772,13.6719)"
           id="g166"><path
             d="M 0,0 34.016,0"
             id="path168"
             style="fill:none;stroke:#231f20;stroke-width:0.56699997;stroke-linecap:butt;stroke-linejoin:miter;stroke-miterlimit:22.9260006;stroke-opacity:1;stroke-dasharray:none" /></g><g
           transform="translate(23.1758,84.5391)"
           id="g170"><path
             d="M 0,0 34.016,0"
             id="path172"
             style="fill:none;stroke:#231f20;stroke-width:0.56699997;stroke-linecap:butt;stroke-linejoin:miter;stroke-miterlimit:22.9260006;stroke-opacity:1;stroke-dasharray:none" /></g><g
           transform="translate(23.1758,183.751)"
           id="g174"><path
             d="M 0,0 34.016,0"
             id="path176"
             style="fill:none;stroke:#231f20;stroke-width:0.56699997;stroke-linecap:butt;stroke-linejoin:miter;stroke-miterlimit:22.9260006;stroke-opacity:1;stroke-dasharray:none" /></g><g
           transform="translate(23.1758,254.6172)"
           id="g178"><path
             d="M 0,0 34.016,0"
             id="path180"
             style="fill:none;stroke:#231f20;stroke-width:0.56699997;stroke-linecap:butt;stroke-linejoin:miter;stroke-miterlimit:22.9260006;stroke-opacity:1;stroke-dasharray:none" /></g><g
           transform="translate(23.1758,325.4844)"
           id="g182"><path
             d="M 0,0 34.016,0"
             id="path184"
             style="fill:none;stroke:#231f20;stroke-width:0.56699997;stroke-linecap:butt;stroke-linejoin:miter;stroke-miterlimit:22.9260006;stroke-opacity:1;stroke-dasharray:none" /></g><g
           transform="translate(23.1772,424.6963)"
           id="g186"><path
             d="M 0,0 34.016,0"
             id="path188"
             style="fill:none;stroke:#231f20;stroke-width:0.56699997;stroke-linecap:square;stroke-linejoin:miter;stroke-miterlimit:22.9260006;stroke-opacity:1;stroke-dasharray:none" /></g><g
           transform="translate(33.8154,77.8477)"
           id="g190"><path
             d="M 0,0 C 0,0.083 0.038,0.162 0.112,0.236 0.187,0.311 0.265,0.349 0.349,0.349 0.435,0.349 0.514,0.317 0.588,0.258 0.662,0.198 0.7,0.109 0.7,0 0.7,-0.108 0.667,-0.196 0.602,-0.261 0.528,-0.32 0.445,-0.352 0.349,-0.352 c -0.05,0 -0.122,0.029 -0.213,0.088 C 0.045,-0.206 0,-0.117 0,0 m 0.349,-1.752 c 0.112,0 0.201,-0.033 0.268,-0.098 C 0.672,-1.914 0.7,-2 0.7,-2.101 0.7,-2.144 0.672,-2.225 0.617,-2.347 0.56,-2.416 0.471,-2.452 0.349,-2.452 l -5.251,0 c -0.196,0 -0.361,-0.068 -0.497,-0.203 -0.136,-0.137 -0.203,-0.301 -0.203,-0.497 l 0,-2.101 5.951,0 c 0.112,0 0.201,-0.034 0.268,-0.099 C 0.672,-5.416 0.7,-5.502 0.7,-5.603 0.7,-5.646 0.672,-5.727 0.617,-5.849 0.56,-5.918 0.471,-5.954 0.349,-5.954 l -6.303,0 c -0.232,0 -0.348,0.118 -0.348,0.351 l 0,2.451 c 0,0.386 0.134,0.716 0.401,0.992 0.27,0.272 0.602,0.408 0.999,0.408 l 5.251,0 z m -6.651,-6.302 -1.408,0 c -0.191,0 -0.354,-0.067 -0.49,-0.204 -0.136,-0.136 -0.203,-0.303 -0.203,-0.504 l 0,-2.442 c 0,-0.108 -0.034,-0.196 -0.098,-0.261 -0.075,-0.059 -0.158,-0.091 -0.253,-0.091 -0.051,0 -0.122,0.029 -0.213,0.088 -0.091,0.058 -0.137,0.147 -0.137,0.264 l 0,2.442 c 0,0.388 0.139,0.72 0.414,0.994 0.274,0.276 0.602,0.414 0.98,0.414 l 7.01,0 c 0.382,0 0.712,-0.133 0.987,-0.401 C 0.562,-8.025 0.7,-8.36 0.7,-8.762 l 0,-1.385 c 0,-0.388 -0.138,-0.72 -0.413,-0.996 -0.275,-0.274 -0.605,-0.413 -0.987,-0.413 l -4.202,0 c -0.392,0 -0.724,0.137 -0.994,0.407 -0.271,0.27 -0.406,0.604 -0.406,1.002 l 0,2.093 z m 0.7,0 0,-2.093 c 0,-0.197 0.069,-0.364 0.205,-0.502 0.139,-0.137 0.304,-0.206 0.495,-0.206 l 4.202,0 c 0.196,0 0.361,0.067 0.497,0.203 0.136,0.136 0.203,0.303 0.203,0.505 l 0,1.385 c 0,0.197 -0.069,0.364 -0.206,0.502 -0.138,0.136 -0.303,0.206 -0.494,0.206 l -4.902,0 z m 4.902,-5.602 -4.202,0 c -0.196,0 -0.361,-0.068 -0.497,-0.203 -0.136,-0.137 -0.203,-0.301 -0.203,-0.497 l 0,-1.401 c 0,-0.196 0.067,-0.361 0.203,-0.497 0.136,-0.137 0.301,-0.203 0.497,-0.203 l 4.202,0 c 0.196,0 0.361,0.066 0.497,0.203 0.136,0.136 0.203,0.301 0.203,0.497 l 0,1.401 c 0,0.196 -0.067,0.36 -0.203,0.497 -0.136,0.135 -0.301,0.203 -0.497,0.203 m 0,0.7 c 0.392,0 0.724,-0.137 0.994,-0.406 0.27,-0.271 0.406,-0.603 0.406,-0.994 l 0,-1.401 c 0,-0.392 -0.136,-0.724 -0.406,-0.994 -0.27,-0.27 -0.602,-0.407 -0.994,-0.407 l -4.202,0 c -0.351,0 -0.672,0.135 -0.963,0.399 -0.292,0.266 -0.437,0.601 -0.437,1.002 l 0,1.401 c 0,0.386 0.134,0.716 0.401,0.991 0.27,0.272 0.602,0.409 0.999,0.409 l 4.202,0 z m 1.049,-5.603 c 0.112,0 0.201,-0.033 0.268,-0.097 0.055,-0.065 0.083,-0.151 0.083,-0.251 0,-0.043 -0.028,-0.124 -0.083,-0.246 -0.057,-0.07 -0.146,-0.106 -0.268,-0.106 l -5.251,0 c -0.196,0 -0.361,-0.066 -0.497,-0.203 -0.136,-0.136 -0.203,-0.301 -0.203,-0.497 l 0,-2.101 5.951,0 c 0.112,0 0.201,-0.033 0.268,-0.097 0.055,-0.065 0.083,-0.152 0.083,-0.251 0,-0.043 -0.028,-0.125 -0.083,-0.246 -0.057,-0.07 -0.146,-0.106 -0.268,-0.106 l -6.303,0 c -0.232,0 -0.348,0.117 -0.348,0.352 l 0,2.449 c 0,0.388 0.134,0.718 0.401,0.992 0.27,0.273 0.602,0.408 0.999,0.408 l 5.251,0 z m -5.953,-10.51 -2.113,0 c -0.211,0 -0.378,-0.07 -0.505,-0.206 -0.127,-0.139 -0.189,-0.301 -0.189,-0.488 0,-0.196 0.06,-0.361 0.182,-0.497 0.112,-0.136 0.285,-0.203 0.512,-0.203 l 2.113,0 c 0.219,0 0.396,0.071 0.527,0.218 0.118,0.131 0.175,0.291 0.175,0.482 0,0.141 -0.055,0.299 -0.167,0.476 -0.132,0.145 -0.311,0.218 -0.535,0.218 m 5.953,-2.794 c 0.062,0 0.148,-0.036 0.26,-0.106 0.06,-0.074 0.091,-0.155 0.091,-0.244 l -0.043,-0.177 -0.16,-0.138 -7.66,-3.537 7.515,0 c 0.109,0 0.198,-0.034 0.265,-0.098 0.055,-0.065 0.083,-0.15 0.083,-0.251 0,-0.043 -0.028,-0.125 -0.083,-0.246 -0.057,-0.069 -0.146,-0.106 -0.268,-0.106 l -9.103,0 c -0.075,0 -0.151,0.037 -0.23,0.106 -0.081,0.069 -0.12,0.15 -0.12,0.246 0,0.055 0.015,0.112 0.041,0.169 0.029,0.06 0.084,0.108 0.163,0.143 l 7.66,3.539 -7.514,0 c -0.075,0 -0.151,0.035 -0.23,0.104 -0.081,0.069 -0.12,0.15 -0.12,0.246 0,0.084 0.029,0.163 0.091,0.237 0.06,0.075 0.146,0.113 0.259,0.113 l 9.103,0 z m -5.953,3.494 c 0.444,0 0.795,-0.147 1.051,-0.436 0.234,-0.259 0.351,-0.58 0.351,-0.958 0,-0.378 -0.114,-0.698 -0.344,-0.958 -0.26,-0.294 -0.614,-0.442 -1.058,-0.442 l -2.111,0 c -0.435,0 -0.782,0.145 -1.039,0.434 -0.232,0.271 -0.35,0.593 -0.35,0.966 0,0.378 0.115,0.699 0.345,0.958 0.25,0.289 0.599,0.436 1.044,0.436 l 2.111,0 z M 0,-42.717 c 0,0.084 0.038,0.162 0.112,0.237 0.075,0.074 0.153,0.112 0.237,0.112 0.086,0 0.165,-0.031 0.239,-0.091 0.074,-0.06 0.112,-0.147 0.112,-0.258 0,-0.107 -0.033,-0.196 -0.098,-0.261 -0.074,-0.059 -0.157,-0.09 -0.253,-0.09 -0.05,0 -0.122,0.029 -0.213,0.089 C 0.045,-42.922 0,-42.834 0,-42.717 m -6.302,-4.11 0,0.951 c 0,0.392 0.134,0.724 0.404,0.999 0.267,0.273 0.599,0.408 0.996,0.408 l 4.202,0 c 0.382,0 0.712,-0.134 0.987,-0.401 0.275,-0.27 0.413,-0.605 0.413,-1.006 l 0,-1.387 c 0,-0.386 -0.138,-0.718 -0.413,-0.994 -0.275,-0.275 -0.605,-0.413 -0.987,-0.413 l -4.202,0 -2.808,0 c -0.435,0 -0.779,0.143 -1.038,0.433 -0.231,0.269 -0.349,0.592 -0.349,0.963 0,0.378 0.115,0.698 0.345,0.958 0.251,0.29 0.6,0.432 1.042,0.432 l 0.253,0 0.175,-0.043 c 0.145,-0.04 0.294,-0.129 0.449,-0.264 0.041,-0.027 0.131,-0.132 0.272,-0.314 l 0.259,-0.322 z m 5.602,1.658 -4.202,0 c -0.196,0 -0.361,-0.067 -0.497,-0.203 -0.136,-0.136 -0.203,-0.304 -0.203,-0.504 l 0,-1.387 c 0,-0.196 0.069,-0.363 0.205,-0.502 0.139,-0.135 0.304,-0.205 0.495,-0.205 l 4.202,0 c 0.196,0 0.361,0.067 0.497,0.203 0.136,0.136 0.203,0.304 0.203,0.504 l 0,1.387 c 0,0.195 -0.069,0.363 -0.206,0.502 -0.138,0.136 -0.303,0.205 -0.494,0.205 m -5.602,-2.801 -0.371,0.54 c -0.103,0.144 -0.275,0.344 -0.512,0.603 l -0.09,0.083 -0.182,0.112 c -0.072,0.041 -0.155,0.063 -0.253,0.063 -0.21,0 -0.378,-0.07 -0.504,-0.205 -0.127,-0.139 -0.189,-0.304 -0.189,-0.496 0,-0.196 0.059,-0.361 0.181,-0.497 0.113,-0.136 0.282,-0.203 0.512,-0.203 l 1.408,0 z m 3.15,-2.801 -2.802,0 c -0.074,0 -0.15,0.036 -0.229,0.105 -0.079,0.069 -0.119,0.15 -0.119,0.246 0,0.084 0.031,0.163 0.09,0.237 0.06,0.074 0.149,0.113 0.258,0.113 l 6.303,0 c 0.112,0 0.201,-0.034 0.268,-0.099 0.055,-0.064 0.083,-0.15 0.083,-0.251 0,-0.043 -0.028,-0.124 -0.083,-0.246 -0.057,-0.069 -0.146,-0.105 -0.268,-0.105 l -2.801,0 0,-2.801 2.801,0 c 0.112,0 0.201,-0.033 0.268,-0.098 0.055,-0.064 0.083,-0.15 0.083,-0.251 0,-0.043 -0.028,-0.124 -0.083,-0.246 -0.057,-0.069 -0.146,-0.105 -0.268,-0.105 l -6.303,0 c -0.074,0 -0.15,0.036 -0.229,0.105 -0.079,0.069 -0.119,0.15 -0.119,0.246 0,0.084 0.031,0.162 0.09,0.236 0.06,0.075 0.149,0.113 0.258,0.113 l 2.802,0 0,2.801 z m 3.432,-4.895 c 0.112,0 0.2,-0.033 0.267,-0.098 0.055,-0.064 0.084,-0.15 0.084,-0.251 0,-0.043 -0.029,-0.124 -0.084,-0.246 C 0.49,-56.33 0.401,-56.366 0.28,-56.366 l -7.512,0 7.66,-3.544 c 0.167,-0.084 0.251,-0.198 0.251,-0.342 0,-0.084 -0.036,-0.163 -0.105,-0.232 -0.074,-0.06 -0.173,-0.091 -0.294,-0.091 l -9.101,0 c -0.077,0 -0.154,0.036 -0.232,0.105 -0.079,0.07 -0.12,0.151 -0.12,0.246 0,0.084 0.031,0.162 0.091,0.238 0.062,0.073 0.148,0.111 0.261,0.111 l 7.511,0 -7.66,3.545 c -0.167,0.084 -0.251,0.198 -0.251,0.342 0,0.071 0.038,0.14 0.113,0.215 0.074,0.072 0.17,0.107 0.287,0.107 l 9.101,0 z"
             id="path192"
             style="fill:#231f20;fill-opacity:1;fill-rule:evenodd;stroke:none" /></g><g
           transform="translate(33.8442,150.9385)"
           id="g194"><path
             d="M 0,0 C 0.055,0.167 0.165,0.254 0.33,0.254 0.433,0.254 0.519,0.22 0.588,0.155 0.657,0.099 0.693,0.02 0.693,-0.083 L 0.671,-0.21 C 0.643,-0.313 0.578,-0.425 0.476,-0.545 0.452,-0.588 0.361,-0.681 0.203,-0.824 0.516,-1.102 0.671,-1.45 0.671,-1.876 l 0,-1.4 c 0,-0.392 -0.136,-0.725 -0.406,-0.995 -0.27,-0.27 -0.602,-0.406 -0.994,-0.406 l -4.202,0 c -0.351,0 -0.672,0.134 -0.963,0.399 -0.292,0.265 -0.437,0.6 -0.437,1.002 l 0,2.452 c 0,0.231 0.117,0.348 0.351,0.348 l 5.251,0 c 0.141,0 0.287,0.043 0.442,0.127 C -0.179,-0.279 -0.083,-0.162 0,0 m -0.729,-1.176 -4.902,0 0,-2.1 c 0,-0.197 0.067,-0.362 0.203,-0.497 0.136,-0.137 0.301,-0.204 0.497,-0.204 l 4.202,0 c 0.196,0 0.361,0.067 0.497,0.204 0.136,0.135 0.203,0.3 0.203,0.497 l 0,1.4 c 0,0.196 -0.067,0.36 -0.203,0.497 -0.136,0.136 -0.301,0.203 -0.497,0.203 m -4.902,-8.403 0,-2.101 5.951,0 c 0.113,0 0.201,-0.033 0.268,-0.097 0.055,-0.065 0.083,-0.152 0.083,-0.251 0,-0.043 -0.028,-0.125 -0.083,-0.247 C 0.531,-12.344 0.442,-12.38 0.32,-12.38 l -6.302,0 c -0.232,0 -0.349,0.117 -0.349,0.352 l 0,4.549 c 0,0.388 0.134,0.718 0.401,0.993 0.27,0.272 0.602,0.409 0.999,0.409 l 5.251,0 c 0.113,0 0.201,-0.034 0.268,-0.099 0.055,-0.064 0.083,-0.15 0.083,-0.251 0,-0.043 -0.028,-0.124 -0.083,-0.246 C 0.531,-6.742 0.442,-6.777 0.32,-6.777 l -5.251,0 c -0.196,0 -0.361,-0.068 -0.497,-0.204 -0.136,-0.136 -0.203,-0.301 -0.203,-0.498 l 0,-1.4 5.951,0 c 0.113,0 0.201,-0.033 0.268,-0.098 0.055,-0.064 0.083,-0.15 0.083,-0.251 0,-0.043 -0.028,-0.124 -0.083,-0.246 C 0.531,-9.543 0.442,-9.579 0.32,-9.579 l -5.951,0 z M 0,-13.305 c 0.055,0.167 0.165,0.253 0.33,0.253 0.103,0 0.189,-0.033 0.258,-0.097 0.069,-0.058 0.105,-0.137 0.105,-0.24 l -0.022,-0.126 c -0.028,-0.103 -0.093,-0.215 -0.195,-0.335 -0.024,-0.043 -0.115,-0.136 -0.273,-0.279 0.313,-0.277 0.468,-0.627 0.468,-1.052 l 0,-1.401 c 0,-0.392 -0.136,-0.724 -0.406,-0.994 -0.27,-0.27 -0.602,-0.406 -0.994,-0.406 l -4.202,0 c -0.351,0 -0.672,0.133 -0.963,0.399 -0.292,0.266 -0.437,0.6 -0.437,1.001 l 0,2.453 c 0,0.232 0.117,0.349 0.351,0.349 l 5.251,0 c 0.141,0 0.287,0.043 0.442,0.127 0.108,0.068 0.204,0.186 0.287,0.348 m -0.729,-1.175 -4.902,0 0,-2.102 c 0,-0.195 0.067,-0.36 0.203,-0.496 0.136,-0.137 0.301,-0.204 0.497,-0.204 l 4.202,0 c 0.196,0 0.361,0.067 0.497,0.204 0.136,0.136 0.203,0.301 0.203,0.496 l 0,1.401 c 0,0.196 -0.067,0.361 -0.203,0.497 -0.136,0.136 -0.301,0.204 -0.497,0.204 m -5.602,-5.603 -1.408,0 c -0.191,0 -0.354,-0.066 -0.49,-0.203 -0.136,-0.136 -0.203,-0.304 -0.203,-0.504 l 0,-2.442 c 0,-0.109 -0.034,-0.197 -0.098,-0.261 -0.074,-0.06 -0.158,-0.091 -0.253,-0.091 -0.05,0 -0.122,0.028 -0.213,0.088 -0.091,0.058 -0.136,0.146 -0.136,0.264 l 0,2.442 c 0,0.387 0.138,0.72 0.413,0.994 0.275,0.275 0.602,0.413 0.98,0.413 l 7.01,0 c 0.382,0 0.712,-0.134 0.987,-0.401 0.275,-0.27 0.413,-0.605 0.413,-1.006 l 0,-1.387 c 0,-0.386 -0.138,-0.719 -0.413,-0.994 -0.275,-0.274 -0.605,-0.413 -0.987,-0.413 l -4.202,0 c -0.392,0 -0.724,0.136 -0.994,0.406 -0.27,0.271 -0.406,0.605 -0.406,1.001 l 0,2.094 z m 0.7,0 0,-2.094 c 0,-0.195 0.069,-0.363 0.205,-0.502 0.139,-0.135 0.304,-0.205 0.495,-0.205 l 4.202,0 c 0.196,0 0.361,0.067 0.497,0.203 0.136,0.136 0.203,0.304 0.203,0.504 l 0,1.387 c 0,0.195 -0.069,0.363 -0.205,0.502 -0.139,0.136 -0.304,0.205 -0.495,0.205 l -4.902,0 z m 5.951,-9.104 c 0.235,0 0.351,-0.117 0.351,-0.348 l 0,-2.452 c 0,-0.392 -0.136,-0.725 -0.406,-0.994 -0.27,-0.271 -0.602,-0.408 -0.994,-0.408 l -5.253,0 c -0.075,0 -0.151,0.036 -0.23,0.106 -0.079,0.069 -0.119,0.151 -0.119,0.246 0,0.084 0.031,0.163 0.09,0.237 0.06,0.073 0.149,0.112 0.259,0.112 l 5.253,0 c 0.196,0 0.361,0.067 0.497,0.204 0.136,0.135 0.203,0.3 0.203,0.497 l 0,2.1 -5.953,0 c -0.075,0 -0.151,0.036 -0.23,0.106 -0.079,0.069 -0.119,0.15 -0.119,0.246 0,0.083 0.031,0.162 0.09,0.236 0.06,0.074 0.149,0.112 0.259,0.112 l 6.302,0 z m -0.349,-10.152 c 0,0.083 0.038,0.162 0.112,0.236 0.075,0.075 0.153,0.113 0.237,0.113 0.086,0 0.165,-0.031 0.239,-0.091 0.074,-0.06 0.112,-0.148 0.112,-0.258 0,-0.108 -0.033,-0.196 -0.098,-0.261 -0.073,-0.059 -0.157,-0.09 -0.253,-0.09 -0.05,0 -0.122,0.028 -0.213,0.087 -0.09,0.058 -0.136,0.147 -0.136,0.264 m 0.349,-1.752 c 0.113,0 0.201,-0.034 0.268,-0.098 0.055,-0.065 0.083,-0.151 0.083,-0.251 0,-0.043 -0.028,-0.124 -0.083,-0.247 -0.057,-0.069 -0.146,-0.104 -0.268,-0.104 l -5.251,0 c -0.196,0 -0.361,-0.067 -0.497,-0.203 -0.136,-0.137 -0.203,-0.302 -0.203,-0.497 l 0,-2.102 5.951,0 c 0.113,0 0.201,-0.033 0.268,-0.097 0.055,-0.065 0.083,-0.151 0.083,-0.251 0,-0.043 -0.028,-0.124 -0.083,-0.247 -0.057,-0.069 -0.146,-0.105 -0.268,-0.105 l -6.302,0 c -0.232,0 -0.349,0.117 -0.349,0.352 l 0,2.45 c 0,0.387 0.134,0.717 0.401,0.991 0.27,0.272 0.602,0.409 0.999,0.409 l 5.251,0 z m -6.651,-6.303 -1.408,0 c -0.191,0 -0.354,-0.067 -0.49,-0.203 -0.136,-0.136 -0.203,-0.303 -0.203,-0.504 l 0,-2.443 c 0,-0.107 -0.034,-0.195 -0.098,-0.26 -0.074,-0.06 -0.158,-0.091 -0.253,-0.091 -0.05,0 -0.122,0.029 -0.213,0.088 -0.091,0.058 -0.136,0.147 -0.136,0.263 l 0,2.443 c 0,0.387 0.138,0.719 0.413,0.995 0.275,0.274 0.602,0.413 0.98,0.413 l 7.01,0 c 0.382,0 0.712,-0.134 0.987,-0.402 0.275,-0.27 0.413,-0.604 0.413,-1.006 l 0,-1.386 c 0,-0.387 -0.138,-0.719 -0.413,-0.994 -0.275,-0.276 -0.605,-0.414 -0.987,-0.414 l -4.202,0 c -0.392,0 -0.724,0.136 -0.994,0.407 -0.27,0.269 -0.406,0.604 -0.406,1.001 l 0,2.093 z m 0.7,0 0,-2.093 c 0,-0.197 0.069,-0.364 0.205,-0.502 0.139,-0.136 0.304,-0.205 0.495,-0.205 l 4.202,0 c 0.196,0 0.361,0.066 0.497,0.203 0.136,0.136 0.203,0.303 0.203,0.504 l 0,1.386 c 0,0.196 -0.069,0.364 -0.205,0.501 -0.139,0.137 -0.304,0.206 -0.495,0.206 l -4.902,0 z m 4.902,-5.601 -4.202,0 c -0.196,0 -0.361,-0.068 -0.497,-0.204 -0.136,-0.136 -0.203,-0.301 -0.203,-0.497 l 0,-1.401 c 0,-0.195 0.067,-0.36 0.203,-0.497 0.136,-0.135 0.301,-0.203 0.497,-0.203 l 4.202,0 c 0.196,0 0.361,0.068 0.497,0.203 0.136,0.137 0.203,0.302 0.203,0.497 l 0,1.401 c 0,0.196 -0.067,0.361 -0.203,0.497 -0.136,0.136 -0.301,0.204 -0.497,0.204 m 0,0.7 c 0.392,0 0.724,-0.137 0.994,-0.406 0.27,-0.271 0.406,-0.603 0.406,-0.995 l 0,-1.401 c 0,-0.391 -0.136,-0.723 -0.406,-0.994 -0.27,-0.269 -0.602,-0.406 -0.994,-0.406 l -4.202,0 c -0.351,0 -0.672,0.134 -0.963,0.399 -0.292,0.265 -0.437,0.6 -0.437,1.001 l 0,1.401 c 0,0.387 0.134,0.717 0.401,0.992 0.27,0.272 0.602,0.409 0.999,0.409 l 4.202,0 z m 1.052,-5.596 c 0.112,0 0.2,-0.033 0.265,-0.097 0.057,-0.065 0.083,-0.151 0.083,-0.251 0,-0.043 -0.026,-0.125 -0.083,-0.246 -0.055,-0.07 -0.144,-0.106 -0.265,-0.106 l -8.755,0 0,-3.509 8.755,0 c 0.112,0 0.2,-0.033 0.265,-0.097 0.057,-0.065 0.083,-0.151 0.083,-0.251 0,-0.043 -0.026,-0.124 -0.083,-0.246 C 0.533,-62.764 0.444,-62.8 0.323,-62.8 l -9.104,0 c -0.234,0 -0.351,0.117 -0.351,0.352 l 0,4.209 c 0,0.231 0.117,0.348 0.351,0.348 l 9.104,0 z"
             id="path196"
             style="fill:#231f20;fill-opacity:1;fill-rule:evenodd;stroke:none" /></g><g
           transform="translate(28.2109,247.2705)"
           id="g198"><path
             d="m 0,0 -2.113,0 c -0.21,0 -0.378,-0.069 -0.504,-0.205 -0.127,-0.139 -0.189,-0.302 -0.189,-0.488 0,-0.196 0.06,-0.361 0.181,-0.497 0.113,-0.136 0.285,-0.204 0.512,-0.204 l 2.113,0 c 0.22,0 0.396,0.073 0.528,0.218 0.117,0.132 0.175,0.292 0.175,0.483 0,0.141 -0.056,0.298 -0.168,0.476 C 0.404,-0.071 0.225,0 0,0 m 5.954,-2.794 c 0.062,0 0.148,-0.035 0.26,-0.104 0.059,-0.075 0.091,-0.156 0.091,-0.245 l -0.043,-0.176 -0.16,-0.139 -7.661,-3.537 7.515,0 c 0.11,0 0.198,-0.033 0.265,-0.098 0.055,-0.064 0.084,-0.151 0.084,-0.251 0,-0.044 -0.029,-0.125 -0.084,-0.247 C 6.164,-7.659 6.076,-7.695 5.954,-7.695 l -9.104,0 c -0.074,0 -0.151,0.036 -0.229,0.104 -0.082,0.07 -0.12,0.152 -0.12,0.247 0,0.055 0.014,0.113 0.041,0.169 0.028,0.06 0.083,0.109 0.162,0.144 l 7.66,3.537 -7.514,0 c -0.074,0 -0.151,0.036 -0.229,0.105 -0.082,0.07 -0.12,0.151 -0.12,0.246 0,0.084 0.029,0.164 0.091,0.237 0.059,0.074 0.146,0.112 0.258,0.112 l 9.104,0 z M 0,0.7 C 0.444,0.7 0.796,0.555 1.052,0.266 1.286,0.005 1.403,-0.315 1.403,-0.693 1.403,-1.07 1.288,-1.391 1.059,-1.651 0.798,-1.945 0.444,-2.093 0,-2.093 l -2.11,0 c -0.435,0 -0.782,0.146 -1.04,0.435 -0.232,0.269 -0.349,0.593 -0.349,0.965 0,0.378 0.115,0.698 0.344,0.959 0.251,0.289 0.6,0.434 1.045,0.434 L 0,0.7 z m 5.604,-14.346 c 0,0.083 0.039,0.162 0.113,0.236 0.074,0.074 0.153,0.112 0.237,0.112 0.086,0 0.164,-0.031 0.238,-0.091 0.075,-0.059 0.113,-0.147 0.113,-0.257 0,-0.108 -0.034,-0.197 -0.098,-0.261 -0.074,-0.06 -0.158,-0.091 -0.253,-0.091 -0.051,0 -0.122,0.029 -0.213,0.088 -0.091,0.057 -0.137,0.146 -0.137,0.264 m -6.302,-4.112 0,0.952 c 0,0.392 0.134,0.724 0.404,0.998 0.268,0.273 0.6,0.41 0.997,0.41 l 4.201,0 c 0.383,0 0.713,-0.134 0.987,-0.402 0.275,-0.27 0.414,-0.604 0.414,-1.006 l 0,-1.386 c 0,-0.387 -0.139,-0.72 -0.414,-0.995 -0.274,-0.275 -0.604,-0.414 -0.987,-0.414 l -4.201,0 -2.808,0 c -0.436,0 -0.78,0.144 -1.038,0.434 -0.232,0.27 -0.349,0.592 -0.349,0.963 0,0.378 0.115,0.697 0.344,0.958 0.251,0.289 0.6,0.433 1.043,0.433 l 0.252,0 0.175,-0.043 c 0.146,-0.041 0.294,-0.129 0.449,-0.266 0.041,-0.026 0.132,-0.131 0.273,-0.313 l 0.258,-0.323 z m 5.602,1.659 -4.201,0 c -0.197,0 -0.361,-0.067 -0.497,-0.203 -0.137,-0.136 -0.204,-0.303 -0.204,-0.504 l 0,-1.386 c 0,-0.197 0.07,-0.364 0.206,-0.502 0.138,-0.137 0.303,-0.205 0.495,-0.205 l 4.201,0 c 0.197,0 0.361,0.066 0.497,0.203 0.137,0.135 0.203,0.302 0.203,0.504 l 0,1.386 c 0,0.196 -0.069,0.363 -0.205,0.501 -0.139,0.137 -0.303,0.206 -0.495,0.206 m -5.602,-2.8 -0.37,0.54 c -0.103,0.142 -0.275,0.343 -0.512,0.601 l -0.091,0.084 -0.182,0.112 c -0.071,0.041 -0.155,0.063 -0.252,0.063 -0.211,0 -0.378,-0.069 -0.505,-0.206 -0.126,-0.139 -0.189,-0.304 -0.189,-0.494 0,-0.197 0.06,-0.362 0.182,-0.497 0.112,-0.137 0.282,-0.203 0.512,-0.203 l 1.407,0 z m 3.15,-2.802 -2.801,0 c -0.074,0 -0.151,0.036 -0.23,0.105 -0.078,0.07 -0.119,0.151 -0.119,0.246 0,0.084 0.031,0.162 0.091,0.237 0.06,0.074 0.148,0.112 0.258,0.112 l 6.303,0 c 0.112,0 0.2,-0.033 0.267,-0.098 0.055,-0.064 0.084,-0.15 0.084,-0.251 0,-0.043 -0.029,-0.124 -0.084,-0.246 -0.057,-0.069 -0.145,-0.105 -0.267,-0.105 l -2.802,0 0,-2.801 2.802,0 c 0.112,0 0.2,-0.033 0.267,-0.098 0.055,-0.064 0.084,-0.151 0.084,-0.251 0,-0.043 -0.029,-0.125 -0.084,-0.247 -0.057,-0.068 -0.145,-0.104 -0.267,-0.104 l -6.303,0 c -0.074,0 -0.151,0.036 -0.23,0.104 -0.078,0.071 -0.119,0.152 -0.119,0.247 0,0.083 0.031,0.163 0.091,0.237 0.06,0.074 0.148,0.112 0.258,0.112 l 2.801,0 0,2.801 z m 3.502,-4.902 c 0.234,0 0.351,-0.117 0.351,-0.348 l 0,-2.453 c 0,-0.392 -0.137,-0.724 -0.407,-0.994 -0.27,-0.27 -0.602,-0.407 -0.994,-0.407 l -5.253,0 c -0.074,0 -0.151,0.036 -0.23,0.106 -0.078,0.069 -0.119,0.15 -0.119,0.246 0,0.084 0.031,0.163 0.091,0.237 0.06,0.073 0.148,0.112 0.258,0.112 l 5.253,0 c 0.197,0 0.361,0.067 0.497,0.204 0.137,0.135 0.203,0.3 0.203,0.496 l 0,2.101 -5.953,0 c -0.074,0 -0.151,0.035 -0.23,0.106 -0.078,0.068 -0.119,0.15 -0.119,0.246 0,0.083 0.031,0.162 0.091,0.236 0.06,0.074 0.148,0.112 0.258,0.112 l 6.303,0 z m -0.35,-10.153 c 0,0.084 0.039,0.163 0.113,0.237 0.074,0.075 0.153,0.113 0.237,0.113 0.086,0 0.164,-0.032 0.238,-0.092 0.075,-0.059 0.113,-0.148 0.113,-0.258 0,-0.107 -0.034,-0.196 -0.098,-0.26 -0.074,-0.06 -0.158,-0.091 -0.253,-0.091 -0.051,0 -0.122,0.029 -0.213,0.088 -0.091,0.058 -0.137,0.146 -0.137,0.263 m 0.35,-1.752 c 0.112,0 0.2,-0.033 0.267,-0.097 0.055,-0.065 0.084,-0.151 0.084,-0.251 0,-0.043 -0.029,-0.124 -0.084,-0.247 -0.057,-0.069 -0.145,-0.105 -0.265,-0.105 l -5.141,0 2.187,-1.455 c 0.136,-0.086 0.203,-0.185 0.203,-0.294 0,-0.107 -0.067,-0.206 -0.203,-0.297 l -2.187,-1.455 5.141,0 c 0.11,0 0.198,-0.033 0.265,-0.099 0.055,-0.063 0.084,-0.15 0.084,-0.25 0,-0.044 -0.029,-0.125 -0.084,-0.247 -0.057,-0.069 -0.145,-0.104 -0.267,-0.104 l -6.308,0 c -0.098,0 -0.184,0.035 -0.253,0.104 -0.069,0.07 -0.105,0.154 -0.105,0.252 0,0.042 0.014,0.093 0.043,0.148 0.014,0.054 0.052,0.102 0.119,0.141 l 2.717,1.807 -2.712,1.805 c -0.112,0.081 -0.167,0.181 -0.167,0.3 0,0.048 0.033,0.118 0.1,0.208 0.07,0.091 0.155,0.136 0.263,0.136 l 6.303,0 z m -0.321,-5.826 c 0.055,0.167 0.165,0.253 0.33,0.253 0.103,0 0.189,-0.033 0.258,-0.098 0.07,-0.057 0.105,-0.136 0.105,-0.239 l -0.021,-0.127 c -0.029,-0.102 -0.094,-0.215 -0.196,-0.334 -0.024,-0.043 -0.115,-0.137 -0.273,-0.28 0.313,-0.277 0.469,-0.626 0.469,-1.052 l 0,-1.4 c 0,-0.392 -0.137,-0.724 -0.407,-0.994 -0.27,-0.27 -0.602,-0.407 -0.994,-0.407 l -4.201,0 c -0.352,0 -0.672,0.134 -0.964,0.4 -0.291,0.264 -0.437,0.599 -0.437,1.001 l 0,2.452 c 0,0.232 0.117,0.349 0.351,0.349 l 5.251,0 c 0.141,0 0.287,0.043 0.443,0.126 0.107,0.07 0.203,0.187 0.286,0.35 m -0.729,-1.176 -4.902,0 0,-2.101 c 0,-0.196 0.067,-0.361 0.204,-0.497 0.136,-0.136 0.3,-0.204 0.497,-0.204 l 4.201,0 c 0.197,0 0.361,0.068 0.497,0.204 0.137,0.136 0.203,0.301 0.203,0.497 l 0,1.4 c 0,0.196 -0.066,0.361 -0.203,0.498 -0.136,0.136 -0.3,0.203 -0.497,0.203 m -2.103,-5.378 c 0.282,0.318 0.631,0.476 1.052,0.476 l 1.051,0 c 0.378,0 0.708,-0.149 0.987,-0.442 0.093,-0.103 0.194,-0.258 0.301,-0.469 0.075,-0.224 0.113,-0.413 0.113,-0.566 l 0,-1.051 c 0,-0.281 -0.084,-0.539 -0.249,-0.778 -0.165,-0.236 -0.406,-0.423 -0.719,-0.552 l -0.124,-0.021 c -0.084,0 -0.163,0.036 -0.232,0.105 -0.07,0.07 -0.106,0.156 -0.106,0.258 0,0.156 0.077,0.261 0.232,0.316 0.118,0.043 0.24,0.129 0.371,0.26 0.084,0.12 0.126,0.258 0.126,0.412 l 0,1.051 c 0,0.196 -0.066,0.375 -0.203,0.537 -0.145,0.161 -0.31,0.24 -0.497,0.24 l -1.051,0 c -0.182,0 -0.345,-0.079 -0.488,-0.24 -0.141,-0.157 -0.213,-0.336 -0.213,-0.537 l 0,-0.701 c 0,-0.107 -0.033,-0.193 -0.098,-0.258 -0.074,-0.059 -0.157,-0.09 -0.253,-0.09 -0.05,0 -0.122,0.029 -0.213,0.087 -0.09,0.058 -0.136,0.147 -0.136,0.261 l 0,0.701 c 0,0.196 -0.067,0.375 -0.203,0.537 -0.144,0.161 -0.311,0.24 -0.497,0.24 l -1.049,0 c -0.182,0 -0.345,-0.079 -0.488,-0.24 -0.141,-0.157 -0.213,-0.336 -0.213,-0.537 l 0,-0.701 c 0,-0.14 0.043,-0.274 0.129,-0.403 0.086,-0.127 0.206,-0.215 0.354,-0.261 0.034,-0.015 0.093,-0.059 0.184,-0.134 l 0.019,-0.043 0.036,-0.145 c 0,-0.094 -0.031,-0.178 -0.096,-0.249 -0.062,-0.071 -0.143,-0.11 -0.241,-0.11 l -0.124,0.021 c -0.292,0.099 -0.524,0.268 -0.698,0.51 -0.174,0.238 -0.263,0.511 -0.263,0.814 l 0,0.701 c 0,0.392 0.139,0.736 0.416,1.033 0.277,0.295 0.607,0.444 0.985,0.444 l 1.049,0 c 0.234,0 0.433,-0.041 0.595,-0.119 0.155,-0.056 0.306,-0.175 0.454,-0.357 m 3.504,-9.326 c 0,-0.234 -0.117,-0.351 -0.351,-0.351 l -9.104,0 c -0.232,0 -0.349,0.117 -0.349,0.351 l 0,2.106 c 0,0.576 0.206,1.073 0.617,1.489 0.195,0.208 0.42,0.361 0.671,0.464 l 0.371,0.105 0.224,0.035 0.218,0 0.7,0 c 0.342,0 0.643,-0.061 0.904,-0.188 0.26,-0.127 0.506,-0.325 0.736,-0.596 0.167,0.333 0.425,0.606 0.776,0.82 0.349,0.215 0.713,0.323 1.085,0.323 l 1.401,0 c 0.559,0 1.052,-0.217 1.47,-0.655 0.42,-0.437 0.631,-0.92 0.631,-1.453 l 0,-2.45 z m -0.701,0.35 0,2.1 c 0,0.377 -0.133,0.707 -0.398,0.987 -0.266,0.28 -0.601,0.421 -1.002,0.421 l -1.401,0 c -0.363,0 -0.688,-0.144 -0.97,-0.428 -0.282,-0.284 -0.423,-0.612 -0.423,-0.98 l 0,-2.1 4.194,0 z m -4.894,0 0,1.749 c 0,0.383 -0.139,0.712 -0.414,0.987 -0.275,0.274 -0.607,0.413 -0.994,0.413 l -0.7,0 c -0.388,0 -0.717,-0.134 -0.992,-0.401 -0.273,-0.271 -0.409,-0.603 -0.409,-0.999 l 0,-1.749 3.509,0 z"
             id="path200"
             style="fill:#231f20;fill-opacity:1;fill-rule:evenodd;stroke:none" /></g><g
           transform="translate(33.8154,318.6201)"
           id="g202"><path
             d="M 0,0 C 0,0.084 0.038,0.162 0.112,0.236 0.187,0.311 0.265,0.349 0.349,0.349 0.435,0.349 0.514,0.317 0.588,0.258 0.662,0.198 0.7,0.11 0.7,0 0.7,-0.107 0.667,-0.196 0.602,-0.261 0.528,-0.32 0.445,-0.352 0.349,-0.352 c -0.05,0 -0.122,0.03 -0.213,0.089 C 0.045,-0.205 0,-0.117 0,0 m 0.349,-1.752 c 0.112,0 0.201,-0.033 0.268,-0.098 C 0.672,-1.914 0.7,-2 0.7,-2.101 0.7,-2.144 0.672,-2.225 0.617,-2.347 0.56,-2.416 0.471,-2.451 0.349,-2.451 l -5.951,0 0,-1.471 6.03,-1.338 C 0.609,-5.303 0.7,-5.411 0.7,-5.59 0.7,-5.688 0.669,-5.771 0.605,-5.846 0.542,-5.917 0.459,-5.953 0.356,-5.953 l -0.084,0.007 -6.302,1.401 c -0.182,0.04 -0.272,0.155 -0.272,0.341 l 0,2.103 c 0,0.233 0.116,0.349 0.348,0.349 l 6.303,0 z m -6.252,-6.024 0.014,0.013 0.014,0.015 c 0.271,0.261 0.595,0.393 0.973,0.393 l 4.202,0 c 0.382,0 0.712,-0.135 0.987,-0.403 C 0.562,-8.027 0.7,-8.362 0.7,-8.764 l 0,-1.383 c 0,-0.387 -0.138,-0.72 -0.413,-0.995 -0.275,-0.275 -0.605,-0.414 -0.987,-0.414 l -4.202,0 c -0.392,0 -0.724,0.137 -0.994,0.407 -0.271,0.27 -0.406,0.605 -0.406,1.002 l 0,0.951 -2.199,-2.246 -0.148,-0.114 c -0.051,-0.033 -0.105,-0.049 -0.161,-0.049 -0.083,0 -0.153,0.036 -0.21,0.105 -0.055,0.069 -0.084,0.167 -0.084,0.294 l 0,3.501 c 0,0.084 0.039,0.163 0.113,0.236 0.074,0.074 0.153,0.114 0.237,0.114 0.086,0 0.164,-0.032 0.238,-0.092 0.075,-0.06 0.113,-0.148 0.113,-0.258 l 0,-2.641 2.5,2.57 z m 5.203,-0.281 -4.202,0 c -0.196,0 -0.361,-0.066 -0.497,-0.203 -0.136,-0.134 -0.203,-0.303 -0.203,-0.504 l 0,-1.383 c 0,-0.197 0.069,-0.364 0.205,-0.502 0.139,-0.137 0.304,-0.205 0.495,-0.205 l 4.202,0 c 0.196,0 0.361,0.066 0.497,0.203 0.136,0.133 0.203,0.302 0.203,0.504 l 0,1.383 c 0,0.197 -0.069,0.364 -0.206,0.502 -0.138,0.136 -0.303,0.205 -0.494,0.205 m 1.4,-5.599 0,-2.093 c 0,-0.388 -0.138,-0.72 -0.413,-0.995 -0.275,-0.275 -0.607,-0.413 -0.995,-0.413 l -5.253,0 c -0.074,0 -0.15,0.036 -0.229,0.104 -0.081,0.07 -0.12,0.152 -0.12,0.247 0,0.083 0.029,0.162 0.091,0.237 0.06,0.074 0.146,0.112 0.258,0.112 l 5.253,0 c 0.196,0 0.364,0.071 0.502,0.213 0.137,0.143 0.206,0.307 0.206,0.495 l 0,2.093 -5.961,0 c -0.074,0 -0.15,0.036 -0.229,0.105 -0.081,0.07 -0.12,0.151 -0.12,0.246 0,0.084 0.029,0.162 0.091,0.237 0.06,0.074 0.146,0.112 0.258,0.112 l 8.055,0 c 0.382,0 0.712,-0.134 0.987,-0.401 0.274,-0.27 0.413,-0.6 0.413,-0.993 l 0,-2.107 c 0,-0.06 -0.036,-0.148 -0.105,-0.259 -0.074,-0.061 -0.155,-0.093 -0.246,-0.093 -0.04,0 -0.122,0.03 -0.244,0.086 -0.069,0.056 -0.105,0.144 -0.105,0.266 l 0,2.107 c 0,0.192 -0.067,0.355 -0.203,0.491 -0.136,0.136 -0.301,0.203 -0.497,0.203 l -1.394,0 z m -7.002,-5.602 -1.408,0 c -0.191,0 -0.354,-0.067 -0.49,-0.203 -0.136,-0.137 -0.203,-0.304 -0.203,-0.505 l 0,-2.442 c 0,-0.108 -0.034,-0.196 -0.098,-0.261 -0.075,-0.06 -0.158,-0.091 -0.253,-0.091 -0.051,0 -0.122,0.03 -0.213,0.089 -0.091,0.058 -0.137,0.146 -0.137,0.263 l 0,2.442 c 0,0.388 0.139,0.72 0.414,0.994 0.274,0.276 0.602,0.414 0.98,0.414 l 7.01,0 c 0.382,0 0.712,-0.133 0.987,-0.401 0.275,-0.27 0.413,-0.605 0.413,-1.007 l 0,-1.386 c 0,-0.387 -0.138,-0.719 -0.413,-0.994 -0.275,-0.275 -0.605,-0.414 -0.987,-0.414 l -4.202,0 c -0.392,0 -0.724,0.137 -0.994,0.406 -0.271,0.271 -0.406,0.605 -0.406,1.002 l 0,2.094 z m 0.7,0 0,-2.094 c 0,-0.196 0.069,-0.363 0.205,-0.502 0.139,-0.136 0.304,-0.206 0.495,-0.206 l 4.202,0 c 0.196,0 0.361,0.068 0.497,0.205 0.136,0.135 0.203,0.302 0.203,0.503 l 0,1.386 c 0,0.196 -0.069,0.363 -0.206,0.502 -0.138,0.137 -0.303,0.206 -0.494,0.206 l -4.902,0 z m -0.002,-9.811 -2.113,0 c -0.211,0 -0.378,-0.07 -0.505,-0.205 -0.127,-0.139 -0.189,-0.302 -0.189,-0.489 0,-0.196 0.06,-0.36 0.182,-0.497 0.112,-0.136 0.285,-0.203 0.512,-0.203 l 2.113,0 c 0.219,0 0.396,0.072 0.527,0.218 0.118,0.131 0.175,0.291 0.175,0.482 0,0.142 -0.055,0.299 -0.167,0.476 -0.132,0.146 -0.311,0.218 -0.535,0.218 m 5.953,-2.794 c 0.062,0 0.148,-0.036 0.26,-0.106 0.06,-0.074 0.091,-0.155 0.091,-0.243 l -0.043,-0.177 -0.16,-0.139 -7.66,-3.536 7.515,0 c 0.109,0 0.198,-0.035 0.265,-0.099 0.055,-0.065 0.083,-0.15 0.083,-0.251 0,-0.043 -0.028,-0.124 -0.083,-0.246 -0.057,-0.069 -0.146,-0.106 -0.268,-0.106 l -9.103,0 c -0.075,0 -0.151,0.037 -0.23,0.106 -0.081,0.069 -0.12,0.15 -0.12,0.246 0,0.056 0.015,0.112 0.041,0.17 0.029,0.059 0.084,0.107 0.163,0.143 l 7.66,3.538 -7.514,0 c -0.075,0 -0.151,0.035 -0.23,0.105 -0.081,0.069 -0.12,0.15 -0.12,0.246 0,0.084 0.029,0.162 0.091,0.236 0.06,0.075 0.146,0.113 0.259,0.113 l 9.103,0 z m -5.953,3.494 c 0.444,0 0.795,-0.146 1.051,-0.435 0.234,-0.26 0.351,-0.581 0.351,-0.959 0,-0.377 -0.114,-0.697 -0.344,-0.958 -0.26,-0.294 -0.614,-0.442 -1.058,-0.442 l -2.111,0 c -0.435,0 -0.782,0.145 -1.039,0.434 -0.232,0.271 -0.35,0.593 -0.35,0.966 0,0.378 0.115,0.699 0.345,0.959 0.25,0.289 0.599,0.435 1.044,0.435 l 2.111,0 z M 0,-42.717 c 0,0.084 0.038,0.163 0.112,0.238 0.075,0.074 0.153,0.112 0.237,0.112 0.086,0 0.165,-0.031 0.239,-0.091 0.074,-0.06 0.112,-0.148 0.112,-0.259 0,-0.107 -0.033,-0.195 -0.098,-0.26 -0.074,-0.06 -0.157,-0.09 -0.253,-0.09 -0.05,0 -0.122,0.028 -0.213,0.088 C 0.045,-42.922 0,-42.833 0,-42.717 m -6.302,-4.11 0,0.951 c 0,0.393 0.134,0.725 0.404,0.999 0.267,0.273 0.599,0.409 0.996,0.409 l 4.202,0 c 0.382,0 0.712,-0.134 0.987,-0.401 0.275,-0.271 0.413,-0.606 0.413,-1.007 l 0,-1.386 c 0,-0.387 -0.138,-0.719 -0.413,-0.995 -0.275,-0.274 -0.605,-0.413 -0.987,-0.413 l -4.202,0 -2.808,0 c -0.435,0 -0.779,0.144 -1.038,0.433 -0.231,0.27 -0.349,0.592 -0.349,0.963 0,0.378 0.115,0.698 0.345,0.959 0.251,0.289 0.6,0.432 1.042,0.432 l 0.253,0 0.175,-0.043 c 0.145,-0.041 0.294,-0.13 0.449,-0.265 0.041,-0.027 0.131,-0.132 0.272,-0.314 l 0.259,-0.322 z m 5.602,1.659 -4.202,0 c -0.196,0 -0.361,-0.067 -0.497,-0.204 -0.136,-0.136 -0.203,-0.303 -0.203,-0.504 l 0,-1.386 c 0,-0.196 0.069,-0.363 0.205,-0.502 0.139,-0.136 0.304,-0.206 0.495,-0.206 l 4.202,0 c 0.196,0 0.361,0.068 0.497,0.203 0.136,0.137 0.203,0.304 0.203,0.505 l 0,1.386 c 0,0.196 -0.069,0.363 -0.206,0.502 -0.138,0.136 -0.303,0.206 -0.494,0.206 m -5.602,-2.802 -0.371,0.54 c -0.103,0.144 -0.275,0.345 -0.512,0.603 l -0.09,0.084 -0.182,0.112 c -0.072,0.04 -0.155,0.062 -0.253,0.062 -0.21,0 -0.378,-0.07 -0.504,-0.205 -0.127,-0.139 -0.189,-0.304 -0.189,-0.496 0,-0.195 0.059,-0.36 0.181,-0.497 0.113,-0.135 0.282,-0.203 0.512,-0.203 l 1.408,0 z m 3.15,-2.801 -2.802,0 c -0.074,0 -0.15,0.037 -0.229,0.106 -0.079,0.069 -0.119,0.15 -0.119,0.246 0,0.083 0.031,0.162 0.09,0.236 0.06,0.075 0.149,0.113 0.258,0.113 l 6.303,0 c 0.112,0 0.201,-0.034 0.268,-0.098 0.055,-0.064 0.083,-0.151 0.083,-0.251 0,-0.043 -0.028,-0.124 -0.083,-0.246 -0.057,-0.069 -0.146,-0.106 -0.268,-0.106 l -2.801,0 0,-2.8 2.801,0 c 0.112,0 0.201,-0.034 0.268,-0.099 0.055,-0.064 0.083,-0.15 0.083,-0.251 0,-0.043 -0.028,-0.124 -0.083,-0.246 -0.057,-0.069 -0.146,-0.105 -0.268,-0.105 l -6.303,0 c -0.074,0 -0.15,0.036 -0.229,0.105 -0.079,0.069 -0.119,0.15 -0.119,0.246 0,0.084 0.031,0.163 0.09,0.237 0.06,0.074 0.149,0.113 0.258,0.113 l 2.802,0 0,2.8 z m 3.432,-4.894 c 0.112,0 0.2,-0.033 0.267,-0.099 0.055,-0.064 0.084,-0.15 0.084,-0.251 0,-0.043 -0.029,-0.124 -0.084,-0.246 C 0.49,-56.33 0.401,-56.366 0.28,-56.366 l -7.512,0 7.66,-3.544 c 0.167,-0.084 0.251,-0.198 0.251,-0.342 0,-0.083 -0.036,-0.162 -0.105,-0.231 -0.074,-0.06 -0.173,-0.091 -0.294,-0.091 l -9.101,0 c -0.077,0 -0.154,0.035 -0.232,0.104 -0.079,0.07 -0.12,0.152 -0.12,0.247 0,0.083 0.031,0.162 0.091,0.237 0.062,0.074 0.148,0.112 0.261,0.112 l 7.511,0 -7.66,3.544 c -0.167,0.084 -0.251,0.199 -0.251,0.342 0,0.072 0.038,0.141 0.113,0.215 0.074,0.072 0.17,0.108 0.287,0.108 l 9.101,0 z"
             id="path204"
             style="fill:#231f20;fill-opacity:1;fill-rule:evenodd;stroke:none" /></g><g
           transform="translate(33.8442,391.8174)"
           id="g206"><path
             d="M 0,0 C 0.055,0.167 0.165,0.253 0.33,0.253 0.433,0.253 0.519,0.22 0.588,0.155 0.657,0.098 0.693,0.019 0.693,-0.084 L 0.671,-0.211 C 0.643,-0.313 0.578,-0.426 0.476,-0.545 0.452,-0.588 0.361,-0.682 0.203,-0.825 0.516,-1.102 0.671,-1.451 0.671,-1.876 l 0,-1.401 c 0,-0.392 -0.136,-0.724 -0.406,-0.994 -0.27,-0.27 -0.602,-0.407 -0.994,-0.407 l -4.202,0 c -0.351,0 -0.672,0.135 -0.963,0.4 -0.292,0.265 -0.437,0.599 -0.437,1.001 l 0,2.452 c 0,0.232 0.117,0.349 0.351,0.349 l 5.251,0 c 0.141,0 0.287,0.043 0.442,0.127 C -0.179,-0.28 -0.083,-0.163 0,0 m -0.729,-1.176 -4.902,0 0,-2.101 c 0,-0.196 0.067,-0.361 0.203,-0.496 0.136,-0.137 0.301,-0.205 0.497,-0.205 l 4.202,0 c 0.196,0 0.361,0.068 0.497,0.205 0.136,0.135 0.203,0.3 0.203,0.496 l 0,1.401 c 0,0.195 -0.067,0.36 -0.203,0.497 -0.136,0.136 -0.301,0.203 -0.497,0.203 m -4.902,-8.403 0,-2.101 5.951,0 c 0.113,0 0.201,-0.034 0.268,-0.098 0.055,-0.065 0.083,-0.151 0.083,-0.251 0,-0.043 -0.028,-0.124 -0.083,-0.246 -0.057,-0.07 -0.146,-0.106 -0.268,-0.106 l -6.302,0 c -0.232,0 -0.349,0.118 -0.349,0.352 l 0,4.55 c 0,0.388 0.134,0.717 0.401,0.993 0.27,0.272 0.602,0.408 0.999,0.408 l 5.251,0 c 0.113,0 0.201,-0.033 0.268,-0.098 0.055,-0.064 0.083,-0.15 0.083,-0.251 0,-0.043 -0.028,-0.124 -0.083,-0.246 C 0.531,-6.742 0.442,-6.778 0.32,-6.778 l -5.251,0 c -0.196,0 -0.361,-0.067 -0.497,-0.203 -0.136,-0.136 -0.203,-0.301 -0.203,-0.498 l 0,-1.4 5.951,0 c 0.113,0 0.201,-0.033 0.268,-0.098 0.055,-0.065 0.083,-0.15 0.083,-0.251 0,-0.043 -0.028,-0.125 -0.083,-0.246 C 0.531,-9.543 0.442,-9.579 0.32,-9.579 l -5.951,0 z M 0,-13.305 c 0.055,0.167 0.165,0.253 0.33,0.253 0.103,0 0.189,-0.033 0.258,-0.097 0.069,-0.058 0.105,-0.137 0.105,-0.24 l -0.022,-0.127 c -0.028,-0.102 -0.093,-0.214 -0.195,-0.335 -0.024,-0.043 -0.115,-0.135 -0.273,-0.279 0.313,-0.277 0.468,-0.626 0.468,-1.052 l 0,-1.4 c 0,-0.392 -0.136,-0.724 -0.406,-0.994 -0.27,-0.271 -0.602,-0.406 -0.994,-0.406 l -4.202,0 c -0.351,0 -0.672,0.133 -0.963,0.399 -0.292,0.265 -0.437,0.6 -0.437,1.001 l 0,2.452 c 0,0.233 0.117,0.349 0.351,0.349 l 5.251,0 c 0.141,0 0.287,0.044 0.442,0.127 0.108,0.069 0.204,0.186 0.287,0.349 m -0.729,-1.176 -4.902,0 0,-2.101 c 0,-0.196 0.067,-0.36 0.203,-0.497 0.136,-0.136 0.301,-0.203 0.497,-0.203 l 4.202,0 c 0.196,0 0.361,0.067 0.497,0.203 0.136,0.137 0.203,0.301 0.203,0.497 l 0,1.4 c 0,0.197 -0.067,0.362 -0.203,0.497 -0.136,0.137 -0.301,0.204 -0.497,0.204 m -5.602,-5.602 -1.408,0 c -0.191,0 -0.354,-0.067 -0.49,-0.203 -0.136,-0.137 -0.203,-0.304 -0.203,-0.505 l 0,-2.442 c 0,-0.108 -0.034,-0.197 -0.098,-0.261 -0.074,-0.06 -0.158,-0.091 -0.253,-0.091 -0.05,0 -0.122,0.029 -0.213,0.089 -0.091,0.058 -0.136,0.145 -0.136,0.263 l 0,2.442 c 0,0.388 0.138,0.72 0.413,0.994 0.275,0.276 0.602,0.414 0.98,0.414 l 7.01,0 c 0.382,0 0.712,-0.134 0.987,-0.401 0.275,-0.271 0.413,-0.606 0.413,-1.007 l 0,-1.386 c 0,-0.387 -0.138,-0.719 -0.413,-0.994 -0.275,-0.275 -0.605,-0.414 -0.987,-0.414 l -4.202,0 c -0.392,0 -0.724,0.137 -0.994,0.407 -0.27,0.27 -0.406,0.605 -0.406,1.001 l 0,2.094 z m 0.7,0 0,-2.094 c 0,-0.196 0.069,-0.363 0.205,-0.502 0.139,-0.136 0.304,-0.205 0.495,-0.205 l 4.202,0 c 0.196,0 0.361,0.067 0.497,0.203 0.136,0.136 0.203,0.303 0.203,0.504 l 0,1.386 c 0,0.196 -0.069,0.363 -0.205,0.502 -0.139,0.137 -0.304,0.206 -0.495,0.206 l -4.902,0 z m 5.951,-9.104 c 0.235,0 0.351,-0.117 0.351,-0.349 l 0,-2.452 c 0,-0.392 -0.136,-0.724 -0.406,-0.994 -0.27,-0.27 -0.602,-0.407 -0.994,-0.407 l -5.253,0 c -0.075,0 -0.151,0.036 -0.23,0.106 -0.079,0.069 -0.119,0.15 -0.119,0.246 0,0.084 0.031,0.162 0.09,0.236 0.06,0.074 0.149,0.113 0.259,0.113 l 5.253,0 c 0.196,0 0.361,0.067 0.497,0.203 0.136,0.136 0.203,0.301 0.203,0.497 l 0,2.101 -5.953,0 c -0.075,0 -0.151,0.035 -0.23,0.105 -0.079,0.069 -0.119,0.151 -0.119,0.246 0,0.084 0.031,0.163 0.09,0.237 0.06,0.073 0.149,0.112 0.259,0.112 l 6.302,0 z M -0.029,-39.34 c 0,0.084 0.038,0.163 0.112,0.237 0.075,0.074 0.153,0.113 0.237,0.113 0.086,0 0.165,-0.031 0.239,-0.092 0.074,-0.06 0.112,-0.147 0.112,-0.258 0,-0.107 -0.033,-0.196 -0.098,-0.261 -0.073,-0.059 -0.157,-0.09 -0.253,-0.09 -0.05,0 -0.122,0.029 -0.213,0.088 -0.09,0.058 -0.136,0.146 -0.136,0.263 m 0.349,-1.752 c 0.113,0 0.201,-0.033 0.268,-0.097 0.055,-0.065 0.083,-0.151 0.083,-0.251 0,-0.043 -0.028,-0.124 -0.083,-0.247 -0.057,-0.069 -0.146,-0.105 -0.268,-0.105 l -5.251,0 c -0.196,0 -0.361,-0.066 -0.497,-0.203 -0.136,-0.136 -0.203,-0.301 -0.203,-0.497 l 0,-2.101 5.951,0 c 0.113,0 0.201,-0.033 0.268,-0.097 0.055,-0.065 0.083,-0.152 0.083,-0.251 0,-0.044 -0.028,-0.125 -0.083,-0.247 -0.057,-0.069 -0.146,-0.105 -0.268,-0.105 l -6.302,0 c -0.232,0 -0.349,0.117 -0.349,0.352 l 0,2.449 c 0,0.388 0.134,0.718 0.401,0.992 0.27,0.272 0.602,0.408 0.999,0.408 l 5.251,0 z m -6.651,-6.302 -1.408,0 c -0.191,0 -0.354,-0.067 -0.49,-0.203 -0.136,-0.136 -0.203,-0.303 -0.203,-0.505 l 0,-2.442 c 0,-0.107 -0.034,-0.196 -0.098,-0.261 -0.074,-0.059 -0.158,-0.091 -0.253,-0.091 -0.05,0 -0.122,0.03 -0.213,0.089 -0.091,0.058 -0.136,0.146 -0.136,0.263 l 0,2.442 c 0,0.388 0.138,0.72 0.413,0.995 0.275,0.275 0.602,0.414 0.98,0.414 l 7.01,0 c 0.382,0 0.712,-0.134 0.987,-0.402 0.275,-0.27 0.413,-0.605 0.413,-1.007 l 0,-1.385 c 0,-0.388 -0.138,-0.72 -0.413,-0.994 -0.275,-0.276 -0.605,-0.415 -0.987,-0.415 l -4.202,0 c -0.392,0 -0.724,0.137 -0.994,0.407 -0.27,0.27 -0.406,0.605 -0.406,1.002 l 0,2.093 z m 0.7,0 0,-2.093 c 0,-0.197 0.069,-0.364 0.205,-0.502 0.139,-0.137 0.304,-0.206 0.495,-0.206 l 4.202,0 c 0.196,0 0.361,0.067 0.497,0.204 0.136,0.136 0.203,0.303 0.203,0.504 l 0,1.385 c 0,0.197 -0.069,0.364 -0.205,0.502 -0.139,0.137 -0.304,0.206 -0.495,0.206 l -4.902,0 z m 4.902,-5.602 -4.202,0 c -0.196,0 -0.361,-0.067 -0.497,-0.203 -0.136,-0.136 -0.203,-0.301 -0.203,-0.497 l 0,-1.401 c 0,-0.196 0.067,-0.361 0.203,-0.497 0.136,-0.136 0.301,-0.203 0.497,-0.203 l 4.202,0 c 0.196,0 0.361,0.067 0.497,0.203 0.136,0.136 0.203,0.301 0.203,0.497 l 0,1.401 c 0,0.196 -0.067,0.361 -0.203,0.497 -0.136,0.136 -0.301,0.203 -0.497,0.203 m 0,0.7 c 0.392,0 0.724,-0.136 0.994,-0.406 0.27,-0.27 0.406,-0.603 0.406,-0.994 l 0,-1.401 c 0,-0.391 -0.136,-0.724 -0.406,-0.994 -0.27,-0.27 -0.602,-0.406 -0.994,-0.406 l -4.202,0 c -0.351,0 -0.672,0.134 -0.963,0.398 -0.292,0.266 -0.437,0.601 -0.437,1.002 l 0,1.401 c 0,0.386 0.134,0.717 0.401,0.992 0.27,0.272 0.602,0.408 0.999,0.408 l 4.202,0 z m 1.052,-5.595 c 0.112,0 0.2,-0.033 0.265,-0.098 0.057,-0.065 0.083,-0.151 0.083,-0.25 0,-0.044 -0.026,-0.125 -0.083,-0.247 -0.055,-0.07 -0.144,-0.105 -0.265,-0.105 l -8.755,0 0,-3.509 8.755,0 c 0.112,0 0.2,-0.033 0.265,-0.097 0.057,-0.065 0.083,-0.152 0.083,-0.251 0,-0.043 -0.026,-0.125 -0.083,-0.247 C 0.533,-62.764 0.444,-62.8 0.323,-62.8 l -9.104,0 c -0.234,0 -0.351,0.117 -0.351,0.352 l 0,4.209 c 0,0.231 0.117,0.348 0.351,0.348 l 9.104,0 z"
             id="path208"
             style="fill:#231f20;fill-opacity:1;fill-rule:evenodd;stroke:none" /></g></g></g></g></svg>