<?xml version="1.0" encoding="utf-8"?>
<!-- Generator: Adobe Illustrator 22.0.1, SVG Export Plug-In . SVG Version: 6.00 Build 0)  -->
<svg version="1.1" id="Layer_1" xmlns="http://www.w3.org/2000/svg" xmlns:xlink="http://www.w3.org/1999/xlink" x="0px" y="0px"
	 viewBox="0 0 16 16" style="enable-background:new 0 0 16 16;" xml:space="preserve">
<style type="text/css">
	.st0{fill:#3498DB;}
	.st1{fill:#DCE8F3;}
	.st2{fill:#298BC1;}
	.st3{fill:#AEC8E0;}
</style>
<polygon class="st0" points="6.758,12.833 5.507,10.667 6.758,8.5 9.26,8.5 10.512,10.667 9.26,12.833 "/>
<polygon class="st1" points="2.14,4.833 0.889,2.667 2.14,0.5 4.642,0.5 5.893,2.667 4.642,4.833 "/>
<polygon class="st1" points="2.14,10.167 0.889,8 2.14,5.833 4.642,5.833 5.893,8 4.642,10.167 "/>
<polygon class="st1" points="2.14,15.5 0.889,13.333 2.14,11.167 4.642,11.167 5.893,13.333 4.642,15.5 "/>
<polygon class="st0" points="11.358,10.167 10.107,8 11.358,5.833 13.86,5.833 15.111,8 13.86,10.167 "/>
<polygon class="st0" points="11.358,4.833 10.107,2.667 11.358,0.5 13.86,0.5 15.111,2.667 13.86,4.833 "/>
<polygon class="st0" points="11.358,15.5 10.107,13.333 11.358,11.167 13.86,11.167 15.111,13.333 13.86,15.5 "/>
<path class="st2" d="M14.149,5.333l1.54-2.667L14.149,0H11.07L9.53,2.667l1.54,2.667L9.53,8H6.47l-1.54,2.667l1.54,2.667h3.06
	L11.07,16h3.079l1.54-2.667l-1.54-2.667L15.689,8L14.149,5.333z M10.685,2.667L11.647,1h1.924l0.962,1.667l-0.962,1.667h-1.924
	L10.685,2.667z M8.972,12.333H7.047l-0.962-1.667L7.047,9h1.924l0.962,1.667L8.972,12.333z M14.534,13.333L13.572,15h-1.924
	l-0.962-1.667l0.962-1.667h1.924L14.534,13.333z M13.572,9.667h-1.924L10.685,8l0.962-1.667h1.924L14.534,8L13.572,9.667z"/>
<polygon class="st1" points="6.758,7.5 5.507,5.333 6.758,3.167 9.26,3.167 10.512,5.333 9.26,7.5 "/>
<path class="st3" d="M9.549,2.667H6.47L4.93,0H1.851l-1.54,2.667l1.54,2.667L0.311,8l1.54,2.667l-1.54,2.667L1.851,16H4.93
	l1.54-2.667l-1.54-2.667L6.47,8h3.079l1.54-2.667L9.549,2.667z M5.315,13.333L4.353,15H2.428l-0.962-1.667l0.962-1.667h1.924
	L5.315,13.333z M1.466,2.667L2.428,1h1.924l0.962,1.667L4.353,4.333H2.428L1.466,2.667z M4.353,9.667H2.428L1.466,8l0.962-1.667
	h1.924L5.315,8L4.353,9.667z M8.972,7H7.047L6.085,5.333l0.962-1.667h1.924l0.962,1.667L8.972,7z"/>
</svg>
