<svg xmlns="http://www.w3.org/2000/svg" xmlns:xlink="http://www.w3.org/1999/xlink" version="1.1" x="0px" y="0px" viewBox="15 10 70 80" xml:space="preserve"><g><path fill="#000000" d="M73.1,31.4c5.3,0,9.6-4.3,9.6-9.6s-4.3-9.6-9.6-9.6s-9.6,4.3-9.6,9.6S67.8,31.4,73.1,31.4z M73.1,15.2   c3.6,0,6.6,3,6.6,6.6c0,3.6-3,6.6-6.6,6.6s-6.6-3-6.6-6.6C66.5,18.2,69.5,15.2,73.1,15.2z"/><circle fill="#000000" cx="73.1" cy="47.8" r="8.1"/><path fill="#000000" d="M73.1,65.2c-5.3,0-9.6,4.3-9.6,9.6s4.3,9.6,9.6,9.6s9.6-4.3,9.6-9.6S78.4,65.2,73.1,65.2z M73.1,81.4   c-3.6,0-6.6-3-6.6-6.6c0-3.6,3-6.6,6.6-6.6s6.6,3,6.6,6.6C79.7,78.5,76.8,81.4,73.1,81.4z"/><path fill="#000000" d="M49.9,12.2c-5.3,0-9.6,4.3-9.6,9.6s4.3,9.6,9.6,9.6c5.3,0,9.6-4.3,9.6-9.6S55.2,12.2,49.9,12.2z M49.9,28.4   c-3.6,0-6.6-3-6.6-6.6c0-3.6,3-6.6,6.6-6.6c3.6,0,6.6,3,6.6,6.6C56.5,25.5,53.5,28.4,49.9,28.4z"/><path fill="#000000" d="M49.9,38.2c-5.3,0-9.6,4.3-9.6,9.6s4.3,9.6,9.6,9.6c5.3,0,9.6-4.3,9.6-9.6S55.2,38.2,49.9,38.2z M49.9,54.4   c-3.6,0-6.6-3-6.6-6.6c0-3.6,3-6.6,6.6-6.6c3.6,0,6.6,3,6.6,6.6C56.5,51.5,53.5,54.4,49.9,54.4z"/><path fill="#000000" d="M26.9,38.2c-5.3,0-9.6,4.3-9.6,9.6s4.3,9.6,9.6,9.6c5.3,0,9.6-4.3,9.6-9.6S32.2,38.2,26.9,38.2z M26.9,54.4   c-3.6,0-6.6-3-6.6-6.6c0-3.6,3-6.6,6.6-6.6c3.6,0,6.6,3,6.6,6.6C33.5,51.5,30.5,54.4,26.9,54.4z"/><circle fill="#000000" cx="26.9" cy="21.8" r="8.1"/><circle fill="#000000" cx="26.9" cy="74.8" r="8.1"/><path fill="#000000" d="M49.9,65.2c-5.3,0-9.6,4.3-9.6,9.6s4.3,9.6,9.6,9.6c5.3,0,9.6-4.3,9.6-9.6S55.2,65.2,49.9,65.2z M49.9,81.4   c-3.6,0-6.6-3-6.6-6.6c0-3.6,3-6.6,6.6-6.6c3.6,0,6.6,3,6.6,6.6C56.5,78.5,53.5,81.4,49.9,81.4z"/></g></svg>